<svg viewBox="0 0 109 111" fill="none" xmlns="http://www.w3.org/2000/svg">
  <path d="M108.1 56.3C108.1 51.8 107.7 48.5 106.9 45H55.0996V65.5H85.4996C84.8996 70.6 81.5996 78.2 74.1996 83.4L74.0996 84.1L90.4996 96.8L91.5996 96.9C102.1 87.3 108.1 73.1 108.1 56.3Z" fill="#4877BB"/>
  <path d="M55.1004 110.3C70.0004 110.3 82.5004 105.4 91.6004 96.9L74.2004 83.4C69.5004 86.6 63.3004 88.9 55.1004 88.9C40.5004 88.9 28.1004 79.3 23.7004 66L23.1004 66.1L6.1004 79.3L5.90039 79.9C14.9004 97.9 33.5004 110.3 55.1004 110.3Z" fill="#21A849"/>
  <path d="M23.7 65.9996C22.5 62.5996 21.9 58.8996 21.9 55.0996C21.9 51.2996 22.6 47.5996 23.7 44.1996V43.4996L6.5 30.0996L5.89999 30.3996C2.19999 37.8996 0 46.2996 0 55.1996C0 64.0996 2.09999 72.4996 5.89999 79.9996L23.7 65.9996Z" fill="#FBBA10"/>
  <path d="M55.0998 21.3C65.4998 21.3 72.3998 25.8 76.3998 29.5L91.9998 14.3C82.3998 5.39999 69.9998 0 55.0998 0C33.4998 0 14.8998 12.4 5.7998 30.4L23.5998 44.3C28.0998 30.9 40.4998 21.3 55.0998 21.3Z" fill="#E73830"/>
</svg>
