<svg viewBox="0 0 22 12" fill="none" xmlns="http://www.w3.org/2000/svg">
<path d="M21.8997 5.78004L15.3222 0.0715389C15.2424 0.0023717 15.1315 -0.018511 15.0321 0.0171062C14.9326 0.0526173 14.8602 0.13901 14.8426 0.242947L14.368 3.04605H2.15356C2.01103 3.04605 1.88931 3.14877 1.86558 3.28896L1.7034 4.24654C1.68906 4.33118 1.7128 4.41773 1.76835 4.4833C1.82384 4.54886 1.90541 4.58665 1.99138 4.58665H7.51317L7.39592 5.38168H0.431946C0.289417 5.38168 0.167704 5.48439 0.143966 5.62458L0.00409224 6.45056C-0.0102457 6.5352 0.0134915 6.6217 0.0690377 6.68732C0.124531 6.75283 0.206097 6.79062 0.292072 6.79062H8.74592L8.62877 7.58565H3.37233C3.2298 7.58565 3.10809 7.68836 3.08435 7.82855L2.95133 8.61388C2.93694 8.69852 2.96073 8.78502 3.01622 8.85064C3.07177 8.9162 3.15333 8.95399 3.23931 8.95399H13.3672L12.9091 11.6599C12.8896 11.7748 12.9405 11.8902 13.0386 11.9534C13.0868 11.9845 13.1419 12 13.1969 12C13.2538 12 13.3106 11.9835 13.3598 11.9504L21.8708 6.24195C21.9462 6.19133 21.9938 6.10849 21.9994 6.01801C22.0052 5.92754 21.9683 5.83956 21.8997 5.78004Z" fill="white"/>
</svg>
