<svg viewBox="0 0 812 387" fill="none" xmlns="http://www.w3.org/2000/svg">
  <path d="M165.041 197.577V197.052C154.545 197.051 145.053 192.796 138.179 185.915C131.307 179.032 127.059 169.531 127.059 159.033C127.059 148.554 131.307 139.06 138.179 132.181C145.052 125.304 154.545 121.049 165.041 121.049C175.539 121.049 185.032 125.304 191.905 132.181C198.779 139.06 203.025 148.554 203.025 159.033C203.025 169.531 198.779 179.032 191.905 185.915C185.032 192.796 175.539 197.051 165.041 197.052V197.577V198.104C186.615 198.104 204.079 180.607 204.079 159.033C204.079 137.494 186.615 119.996 165.041 119.996C143.469 119.996 126.007 137.494 126.007 159.033C126.007 180.607 143.469 198.104 165.041 198.104V197.577ZM220.564 165.879H221.089V152.212C221.089 150.584 219.771 149.265 218.143 149.265H214.625C213.835 149.265 213.139 148.725 212.967 147.969C211.736 142.607 209.64 137.572 206.812 133.035C206.628 132.739 206.539 132.411 206.539 132.085C206.539 131.644 206.704 131.217 207.032 130.888L209.505 128.415C210.081 127.839 210.369 127.079 210.369 126.327C210.369 125.575 210.079 124.819 209.505 124.247L199.843 114.584C199.276 114.017 198.529 113.72 197.779 113.721C197.024 113.72 196.257 114.001 195.676 114.584L193.205 117.055C192.876 117.383 192.449 117.547 192.007 117.548C191.683 117.548 191.353 117.457 191.059 117.273C186.521 114.444 181.485 112.345 176.119 111.112C175.364 110.94 174.824 110.245 174.824 109.455V105.947C174.824 104.32 173.505 103.002 171.877 103H158.212C156.584 103.002 155.265 104.32 155.264 105.947V109.453C155.265 110.245 154.725 110.94 153.969 111.112C148.603 112.344 143.565 114.443 139.028 117.272C138.732 117.456 138.404 117.545 138.079 117.545C137.637 117.545 137.211 117.381 136.881 117.052L134.413 114.584C133.844 114.015 133.093 113.72 132.343 113.721C131.589 113.72 130.825 114.004 130.245 114.584L120.583 124.247C120.005 124.825 119.72 125.587 119.72 126.34C119.72 127.092 120.013 127.844 120.584 128.415L123.055 130.885C123.383 131.215 123.547 131.641 123.548 132.083C123.548 132.407 123.457 132.736 123.273 133.032C120.447 137.569 118.349 142.605 117.119 147.971C116.947 148.727 116.251 149.265 115.46 149.265H111.947C110.319 149.265 109 150.584 109 152.212V165.879C109 167.505 110.319 168.824 111.947 168.825H115.461C116.252 168.825 116.948 169.364 117.12 170.12C118.352 175.485 120.449 180.52 123.276 185.055C123.46 185.351 123.551 185.68 123.551 186.004C123.549 186.445 123.385 186.872 123.057 187.201L120.583 189.676C120.001 190.257 119.72 191.024 119.72 191.779C119.72 192.529 120.016 193.276 120.583 193.843L130.245 203.507C130.828 204.088 131.595 204.371 132.349 204.369C133.1 204.369 133.847 204.073 134.413 203.507L136.889 201.029C137.219 200.701 137.645 200.537 138.088 200.536C138.412 200.536 138.74 200.627 139.036 200.811C143.572 203.635 148.605 205.729 153.969 206.96C154.725 207.132 155.265 207.827 155.264 208.619V212.143C155.265 213.771 156.584 215.089 158.212 215.091H171.877C173.505 215.089 174.824 213.771 174.824 212.143V208.617C174.824 207.827 175.364 207.131 176.12 206.959C181.483 205.729 186.516 203.635 191.052 200.809C191.347 200.625 191.676 200.536 192 200.535C192.441 200.536 192.868 200.7 193.197 201.028L195.676 203.507C196.252 204.083 197.011 204.371 197.764 204.369C198.516 204.371 199.271 204.079 199.843 203.507L209.505 193.843C210.079 193.271 210.369 192.516 210.368 191.764C210.369 191.011 210.081 190.252 209.505 189.676L207.029 187.2C206.701 186.871 206.536 186.444 206.536 186.003C206.536 185.679 206.625 185.349 206.809 185.053C209.637 180.519 211.733 175.484 212.965 170.12C213.136 169.364 213.832 168.825 214.623 168.825H218.143C219.771 168.824 221.089 167.505 221.089 165.879H220.564H220.037C220.035 166.924 219.189 167.771 218.143 167.772H214.623C213.355 167.772 212.228 168.633 211.939 169.884C210.733 175.135 208.683 180.06 205.916 184.497C205.628 184.96 205.483 185.483 205.483 186.003C205.483 186.708 205.753 187.413 206.285 187.945L208.761 190.42C209.132 190.792 209.315 191.275 209.316 191.764C209.315 192.248 209.132 192.728 208.761 193.099L199.099 202.763C198.728 203.132 198.248 203.316 197.764 203.317C197.275 203.316 196.792 203.133 196.42 202.763L193.941 200.284C193.411 199.752 192.705 199.481 192 199.483C191.481 199.483 190.957 199.627 190.495 199.916C186.059 202.679 181.133 204.729 175.884 205.933C174.633 206.221 173.772 207.349 173.772 208.617V212.143C173.769 213.189 172.924 214.036 171.877 214.037H158.212C157.165 214.036 156.319 213.189 156.317 212.143V208.619C156.317 207.349 155.456 206.223 154.205 205.933C148.955 204.729 144.029 202.68 139.592 199.916C139.129 199.628 138.607 199.484 138.088 199.484C137.381 199.483 136.677 199.753 136.145 200.285L133.669 202.763C133.3 203.131 132.824 203.316 132.349 203.317C131.852 203.316 131.364 203.135 130.991 202.763L121.328 193.099C120.959 192.729 120.773 192.253 120.773 191.779C120.773 191.281 120.955 190.793 121.328 190.42L123.801 187.945C124.333 187.415 124.604 186.709 124.604 186.004C124.604 185.484 124.459 184.961 124.169 184.499C121.404 180.061 119.352 175.135 118.145 169.884C117.856 168.632 116.729 167.772 115.461 167.772H111.947C110.9 167.771 110.055 166.924 110.052 165.879V152.212C110.055 151.167 110.9 150.32 111.947 150.317H115.46C116.728 150.317 117.855 149.457 118.144 148.205C119.349 142.955 121.401 138.028 124.167 133.588C124.456 133.125 124.6 132.603 124.6 132.083C124.601 131.377 124.331 130.672 123.799 130.141L121.328 127.671C120.957 127.3 120.773 126.821 120.773 126.34C120.773 125.848 120.956 125.364 121.328 124.992L130.991 115.328C131.363 114.956 131.848 114.775 132.343 114.773C132.821 114.775 133.299 114.959 133.669 115.328L136.137 117.797C136.668 118.329 137.373 118.599 138.079 118.599C138.599 118.599 139.121 118.454 139.585 118.166C144.024 115.398 148.952 113.344 154.205 112.139C155.457 111.849 156.317 110.723 156.317 109.453V105.947C156.319 104.901 157.165 104.055 158.212 104.053H171.877C172.924 104.055 173.769 104.901 173.772 105.947V109.455C173.772 110.723 174.632 111.849 175.884 112.139C181.136 113.345 186.063 115.399 190.501 118.167C190.964 118.456 191.488 118.6 192.007 118.6C192.713 118.602 193.417 118.331 193.949 117.799L196.42 115.328C196.793 114.955 197.281 114.775 197.779 114.773C198.253 114.773 198.729 114.96 199.099 115.328L208.761 124.992C209.132 125.363 209.316 125.843 209.316 126.327C209.315 126.816 209.132 127.299 208.761 127.671L206.288 130.144C205.756 130.675 205.485 131.38 205.485 132.085C205.485 132.605 205.631 133.128 205.919 133.591C208.685 138.031 210.736 142.956 211.941 148.205C212.229 149.457 213.356 150.317 214.625 150.317H218.143C219.189 150.32 220.035 151.167 220.037 152.212V165.879H220.564Z" fill="#D7DCF2"/>
  <path d="M294.833 89.6136C281.149 89.6136 270.071 78.5136 270.071 64.8282C270.071 51.1642 281.149 40.0629 294.833 40.0629C308.519 40.0629 319.597 51.1642 319.597 64.8282C319.597 78.5136 308.519 89.6136 294.833 89.6136ZM332.671 69.4922V60.1776C332.671 59.2669 331.932 58.5282 331.021 58.5282H328.624C327.923 58.5282 327.301 58.0522 327.144 57.3669C326.315 53.7509 324.901 50.3576 322.996 47.2989C322.615 46.6882 322.687 45.9016 323.196 45.3922L324.881 43.7069C325.525 43.0629 325.525 42.0189 324.881 41.3736L318.296 34.7882C317.652 34.1442 316.608 34.1442 315.964 34.7882L314.28 36.4722C313.771 36.9816 312.984 37.0522 312.373 36.6722C309.315 34.7642 305.92 33.3496 302.303 32.5189C301.619 32.3616 301.141 31.7402 301.141 31.0389V28.6496C301.141 27.7389 300.403 27.0002 299.492 27.0002H290.179C289.268 27.0002 288.529 27.7389 288.529 28.6496V31.0389C288.529 31.7402 288.052 32.3616 287.368 32.5189C283.749 33.3496 280.353 34.7642 277.295 36.6709C276.684 37.0522 275.897 36.9802 275.389 36.4709L273.707 34.7882C273.063 34.1442 272.019 34.1442 271.373 34.7882L264.789 41.3736C264.145 42.0189 264.145 43.0629 264.789 43.7069L266.473 45.3909C266.981 45.8989 267.053 46.6856 266.673 47.2962C264.767 50.3562 263.353 53.7509 262.524 57.3682C262.367 58.0522 261.745 58.5282 261.044 58.5282H258.649C257.739 58.5282 257 59.2669 257 60.1776V69.4922C257 70.4029 257.739 71.1416 258.649 71.1416H261.045C261.747 71.1416 262.367 71.6176 262.524 72.3016C263.356 75.9189 264.769 79.3136 266.675 82.3709C267.056 82.9816 266.984 83.7682 266.475 84.2776L264.789 85.9629C264.145 86.6069 264.145 87.6509 264.789 88.2962L271.373 94.8816C272.019 95.5256 273.063 95.5256 273.707 94.8816L275.395 93.1936C275.903 92.6856 276.689 92.6122 277.3 92.9936C280.357 94.8976 283.751 96.3096 287.368 97.1389C288.052 97.2962 288.529 97.9162 288.529 98.6189V101.02C288.529 101.932 289.268 102.671 290.179 102.671H299.492C300.403 102.671 301.141 101.932 301.141 101.02V98.6176C301.141 97.9162 301.619 97.2949 302.303 97.1389C305.919 96.3082 309.312 94.8962 312.369 92.9922C312.98 92.6122 313.767 92.6842 314.275 93.1922L315.964 94.8816C316.608 95.5256 317.652 95.5256 318.296 94.8816L324.881 88.2962C325.525 87.6522 325.525 86.6069 324.881 85.9629L323.193 84.2762C322.685 83.7669 322.613 82.9802 322.993 82.3696C324.899 79.3122 326.312 75.9189 327.143 72.3016C327.3 71.6176 327.921 71.1416 328.623 71.1416H331.021C331.932 71.1416 332.671 70.4029 332.671 69.4922Z" fill="#D7DCF2"/>
  <path d="M186.058 306.514C186.058 309.007 184.036 311.028 181.543 311.028C179.05 311.028 177.028 309.007 177.028 306.514C177.028 304.019 179.05 301.999 181.543 301.999C184.036 301.999 186.058 304.019 186.058 306.514Z" fill="#98A1D9"/>
  <path d="M755.029 251.515C755.029 254.008 753.008 256.029 750.515 256.029C748.021 256.029 746 254.008 746 251.515C746 249.021 748.021 247 750.515 247C753.008 247 755.029 249.021 755.029 251.515Z" fill="#98A1D9"/>
  <path d="M603.863 41.1446C603.863 42.7086 602.595 43.9766 601.031 43.9766C599.467 43.9766 598.199 42.7086 598.199 41.1446C598.199 39.5806 599.467 38.3126 601.031 38.3126C602.595 38.3126 603.863 39.5806 603.863 41.1446Z" fill="#98A1D9"/>
  <path d="M216.664 38.8321C216.664 40.3961 215.396 41.6641 213.832 41.6641C212.268 41.6641 211 40.3961 211 38.8321C211 37.2681 212.268 36.0001 213.832 36.0001C215.396 36.0001 216.664 37.2681 216.664 38.8321Z" fill="#98A1D9"/>
  <path d="M158.004 311.028C158.004 312.592 156.736 313.86 155.172 313.86C153.608 313.86 152.34 312.592 152.34 311.028C152.34 309.463 153.608 308.196 155.172 308.196C156.736 308.196 158.004 309.463 158.004 311.028Z" fill="#98A1D9"/>
  <path d="M726.672 372.181C726.672 374.674 724.651 376.695 722.157 376.695C719.664 376.695 717.643 374.674 717.643 372.181C717.643 369.687 719.664 367.666 722.157 367.666C724.651 367.666 726.672 369.687 726.672 372.181Z" fill="#98A1D9"/>
  <path d="M769.029 349.515C769.029 352.008 767.008 354.029 764.515 354.029C762.021 354.029 760 352.008 760 349.515C760 347.021 762.021 345 764.515 345C767.008 345 769.029 347.021 769.029 349.515Z" fill="#98A1D9"/>
  <path d="M548.556 179.522C548.556 182.858 545.852 185.562 542.515 185.562C539.179 185.562 536.475 182.858 536.475 179.522C536.475 176.184 539.179 173.48 542.515 173.48C545.852 173.48 548.556 176.184 548.556 179.522Z" fill="#98A1D9"/>
  <path d="M143 47.82C143 51.1574 140.296 53.8613 136.96 53.8613C133.623 53.8613 130.919 51.1574 130.919 47.82C130.919 44.484 133.623 41.78 136.96 41.78C140.296 41.78 143 44.484 143 47.82Z" fill="#98A1D9"/>
  <path d="M669.481 354.368H661.885C661.396 354.368 661 353.972 661 353.483V345.887C661 345.397 661.396 345 661.885 345H669.481C669.971 345 670.367 345.397 670.367 345.887V353.483C670.367 353.972 669.971 354.368 669.481 354.368Z" fill="#D7DCF2"/>
  <path d="M682.013 354.368H674.417C673.927 354.368 673.531 353.972 673.531 353.483V345.887C673.531 345.397 673.927 345 674.417 345H682.013C682.502 345 682.898 345.397 682.898 345.887V353.483C682.898 353.972 682.502 354.368 682.013 354.368Z" fill="#D7DCF2"/>
  <path d="M694.543 354.368H686.947C686.457 354.368 686.062 353.972 686.062 353.483V345.887C686.062 345.397 686.457 345 686.947 345H694.543C695.032 345 695.428 345.397 695.428 345.887V353.483C695.428 353.972 695.032 354.368 694.543 354.368Z" fill="#D7DCF2"/>
  <path d="M184.823 281.491H177.225C176.736 281.491 176.34 281.094 176.34 280.606V273.009C176.34 272.519 176.736 272.123 177.225 272.123H184.823C185.311 272.123 185.708 272.519 185.708 273.009V280.606C185.708 281.094 185.311 281.491 184.823 281.491Z" fill="#D7DCF2"/>
  <path d="M197.352 281.491H189.754C189.265 281.491 188.869 281.094 188.869 280.606V273.009C188.869 272.519 189.265 272.123 189.754 272.123H197.352C197.84 272.123 198.237 272.519 198.237 273.009V280.606C198.237 281.094 197.84 281.491 197.352 281.491Z" fill="#D7DCF2"/>
  <path d="M209.882 281.491H202.286C201.796 281.491 201.4 281.094 201.4 280.606V273.009C201.4 272.519 201.796 272.123 202.286 272.123H209.882C210.371 272.123 210.768 272.519 210.768 273.009V280.606C210.768 281.094 210.371 281.491 209.882 281.491Z" fill="#D7DCF2"/>
  <path d="M468.134 362.479H325.505C313.076 362.479 303 352.404 303 339.975V22.5048C303 10.0764 313.076 -0.000233821 325.505 -0.000233821H468.134C480.563 -0.000233821 490.639 10.0764 490.639 22.5048V339.975C490.639 352.404 480.563 362.479 468.134 362.479Z" fill="#384FAA"/>
  <path d="M467.413 357.328H326.226C315.339 357.328 306.514 348.502 306.514 337.615V22.8864C306.514 11.9991 315.339 3.17376 326.226 3.17376H467.413C478.3 3.17376 487.125 11.9991 487.125 22.8864V337.615C487.125 348.502 478.3 357.328 467.413 357.328Z" fill="white"/>
  <path d="M479.219 22.2684V336.632C479.219 344.004 473.242 349.981 465.87 349.981H327.77C320.397 349.981 314.42 344.004 314.42 336.632V22.2684C314.42 14.8957 320.397 8.91867 327.77 8.91867H350.799C352.077 8.91867 353.245 9.63972 353.818 10.7824L356.263 15.6642C357.378 17.9169 359.678 19.3284 362.179 19.3284H431.46C433.962 19.3284 436.262 17.9169 437.376 15.6642L439.822 10.7824C440.394 9.63972 441.562 8.91867 442.841 8.91867H465.87C473.242 8.91867 479.219 14.8957 479.219 22.2684Z" fill="#D7DCF2"/>
  <path d="M425.894 13.6172H370.094C368.797 13.6172 367.745 12.5651 367.745 11.2675C367.745 9.9698 368.797 8.91883 370.094 8.91883H425.894C427.192 8.91883 428.244 9.9698 428.244 11.2675C428.244 12.5651 427.192 13.6172 425.894 13.6172Z" fill="#D7DCF2"/>
  <path d="M451.316 338.543H448.325C448.034 338.543 447.798 338.779 447.798 339.07C447.798 339.361 448.034 339.597 448.325 339.597H451.316C451.607 339.597 451.843 339.361 451.843 339.07C451.843 338.779 451.607 338.543 451.316 338.543ZM445.334 338.543H442.344C442.053 338.543 441.817 338.779 441.817 339.07C441.817 339.361 442.053 339.597 442.344 339.597H445.334C445.625 339.597 445.861 339.361 445.861 339.07C445.861 338.779 445.625 338.543 445.334 338.543ZM439.353 338.543H436.362C436.072 338.543 435.835 338.779 435.835 339.07C435.835 339.361 436.072 339.597 436.362 339.597H439.353C439.644 339.597 439.88 339.361 439.88 339.07C439.88 338.779 439.644 338.543 439.353 338.543ZM433.372 338.543H430.381C430.09 338.543 429.854 338.779 429.854 339.07C429.854 339.361 430.09 339.597 430.381 339.597H433.372C433.663 339.597 433.899 339.361 433.899 339.07C433.899 338.779 433.663 338.543 433.372 338.543ZM427.391 338.543H424.4C424.109 338.543 423.873 338.779 423.873 339.07C423.873 339.361 424.109 339.597 424.4 339.597H427.391C427.682 339.597 427.918 339.361 427.918 339.07C427.918 338.779 427.682 338.543 427.391 338.543ZM421.409 338.543H418.419C418.128 338.543 417.892 338.779 417.892 339.07C417.892 339.361 418.128 339.597 418.419 339.597H421.409C421.7 339.597 421.936 339.361 421.936 339.07C421.936 338.779 421.7 338.543 421.409 338.543ZM415.428 338.543H412.437C412.147 338.543 411.91 338.779 411.91 339.07C411.91 339.361 412.147 339.597 412.437 339.597H415.428C415.719 339.597 415.955 339.361 415.955 339.07C415.955 338.779 415.719 338.543 415.428 338.543ZM409.447 338.543H406.456C406.165 338.543 405.929 338.779 405.929 339.07C405.929 339.361 406.165 339.597 406.456 339.597H409.447C409.738 339.597 409.974 339.361 409.974 339.07C409.974 338.779 409.738 338.543 409.447 338.543ZM403.466 338.543H400.475C400.184 338.543 399.948 338.779 399.948 339.07C399.948 339.361 400.184 339.597 400.475 339.597H403.466C403.757 339.597 403.993 339.361 403.993 339.07C403.993 338.779 403.757 338.543 403.466 338.543ZM397.484 338.543H394.494C394.203 338.543 393.967 338.779 393.967 339.07C393.967 339.361 394.203 339.597 394.494 339.597H397.484C397.775 339.597 398.011 339.361 398.011 339.07C398.011 338.779 397.775 338.543 397.484 338.543ZM391.503 338.543H388.512C388.222 338.543 387.985 338.779 387.985 339.07C387.985 339.361 388.222 339.597 388.512 339.597H391.503C391.794 339.597 392.03 339.361 392.03 339.07C392.03 338.779 391.794 338.543 391.503 338.543ZM385.522 338.543H382.531C382.24 338.543 382.004 338.779 382.004 339.07C382.004 339.361 382.24 339.597 382.531 339.597H385.522C385.813 339.597 386.049 339.361 386.049 339.07C386.049 338.779 385.813 338.543 385.522 338.543ZM379.541 338.543H376.55C376.259 338.543 376.023 338.779 376.023 339.07C376.023 339.361 376.259 339.597 376.55 339.597H379.541C379.832 339.597 380.068 339.361 380.068 339.07C380.068 338.779 379.832 338.543 379.541 338.543ZM373.559 338.543H370.569C370.278 338.543 370.042 338.779 370.042 339.07C370.042 339.361 370.278 339.597 370.569 339.597H373.559C373.85 339.597 374.086 339.361 374.086 339.07C374.086 338.779 373.85 338.543 373.559 338.543ZM367.578 338.543H364.587C364.297 338.543 364.06 338.779 364.06 339.07C364.06 339.361 364.297 339.597 364.587 339.597H367.578C367.869 339.597 368.105 339.361 368.105 339.07C368.105 338.779 367.869 338.543 367.578 338.543ZM361.597 338.543H358.606C358.315 338.543 358.079 338.779 358.079 339.07C358.079 339.361 358.315 339.597 358.606 339.597H361.597C361.888 339.597 362.124 339.361 362.124 339.07C362.124 338.779 361.888 338.543 361.597 338.543ZM355.616 338.543H352.625C352.334 338.543 352.098 338.779 352.098 339.07C352.098 339.361 352.334 339.597 352.625 339.597H355.616C355.907 339.597 356.143 339.361 356.143 339.07C356.143 338.779 355.907 338.543 355.616 338.543ZM349.634 338.543H346.644C346.353 338.543 346.117 338.779 346.117 339.07C346.117 339.361 346.353 339.597 346.644 339.597H349.634C349.925 339.597 350.161 339.361 350.161 339.07C350.161 338.779 349.925 338.543 349.634 338.543ZM343.653 338.543H340.663C340.372 338.543 340.135 338.779 340.135 339.07C340.135 339.361 340.372 339.597 340.663 339.597H343.653C343.944 339.597 344.18 339.361 344.18 339.07C344.18 338.779 343.944 338.543 343.653 338.543ZM337.672 338.543H334.681C334.39 338.543 334.154 338.779 334.154 339.07C334.154 339.361 334.39 339.597 334.681 339.597H337.672C337.963 339.597 338.199 339.361 338.199 339.07C338.199 338.779 337.963 338.543 337.672 338.543ZM331.782 338.435C330.837 338.281 329.946 337.968 329.137 337.524C328.882 337.384 328.562 337.477 328.422 337.732C328.282 337.988 328.375 338.308 328.63 338.448C329.542 338.949 330.548 339.302 331.613 339.476C331.9 339.522 332.17 339.327 332.218 339.039C332.264 338.753 332.069 338.482 331.782 338.435ZM326.945 335.784C326.322 335.09 325.814 334.292 325.451 333.419C325.34 333.15 325.032 333.022 324.763 333.134C324.494 333.246 324.366 333.553 324.478 333.822C324.887 334.808 325.459 335.707 326.161 336.488C326.355 336.705 326.688 336.723 326.905 336.528C327.121 336.334 327.139 336.001 326.945 335.784ZM324.833 330.69C324.825 330.541 324.821 330.389 324.821 330.237V327.728C324.821 327.437 324.585 327.201 324.294 327.201C324.003 327.201 323.767 327.437 323.767 327.728V330.237C323.767 330.408 323.771 330.579 323.78 330.747C323.796 331.038 324.044 331.261 324.335 331.245C324.626 331.229 324.848 330.981 324.833 330.69ZM324.821 324.738V321.747C324.821 321.456 324.585 321.22 324.294 321.22C324.003 321.22 323.767 321.456 323.767 321.747V324.738C323.767 325.029 324.003 325.265 324.294 325.265C324.585 325.265 324.821 325.029 324.821 324.738ZM324.821 318.756V315.766C324.821 315.475 324.585 315.239 324.294 315.239C324.003 315.239 323.767 315.475 323.767 315.766V318.756C323.767 319.047 324.003 319.283 324.294 319.283C324.585 319.283 324.821 319.047 324.821 318.756ZM324.821 312.775V309.784C324.821 309.494 324.585 309.257 324.294 309.257C324.003 309.257 323.767 309.494 323.767 309.784V312.775C323.767 313.066 324.003 313.302 324.294 313.302C324.585 313.302 324.821 313.066 324.821 312.775ZM324.821 306.794V303.803C324.821 303.512 324.585 303.276 324.294 303.276C324.003 303.276 323.767 303.512 323.767 303.803V306.794C323.767 307.085 324.003 307.321 324.294 307.321C324.585 307.321 324.821 307.085 324.821 306.794ZM324.821 300.813V297.822C324.821 297.531 324.585 297.295 324.294 297.295C324.003 297.295 323.767 297.531 323.767 297.822V300.813C323.767 301.104 324.003 301.34 324.294 301.34C324.585 301.34 324.821 301.104 324.821 300.813ZM324.821 294.831V291.841C324.821 291.55 324.585 291.314 324.294 291.314C324.003 291.314 323.767 291.55 323.767 291.841V294.831C323.767 295.122 324.003 295.358 324.294 295.358C324.585 295.358 324.821 295.122 324.821 294.831ZM324.821 288.85V286.393C324.821 286.224 324.826 286.058 324.835 285.892C324.852 285.601 324.631 285.351 324.341 285.335C324.05 285.317 323.8 285.539 323.783 285.829C323.772 286.016 323.767 286.203 323.767 286.393V288.85C323.767 289.141 324.003 289.377 324.294 289.377C324.585 289.377 324.821 289.141 324.821 288.85ZM325.47 283.167C325.838 282.295 326.35 281.5 326.978 280.809C327.174 280.594 327.158 280.26 326.942 280.065C326.727 279.869 326.394 279.885 326.197 280.1C325.491 280.878 324.914 281.775 324.499 282.757C324.385 283.025 324.512 283.335 324.78 283.448C325.048 283.56 325.357 283.435 325.47 283.167ZM329.18 279.082C329.991 278.644 330.884 278.336 331.83 278.187C332.118 278.142 332.314 277.872 332.268 277.585C332.224 277.298 331.954 277.101 331.666 277.146C330.601 277.314 329.593 277.66 328.678 278.156C328.423 278.294 328.327 278.613 328.466 278.869C328.604 279.126 328.924 279.22 329.18 279.082ZM334.733 278.087H337.724C338.014 278.087 338.251 277.851 338.251 277.56C338.251 277.269 338.014 277.033 337.724 277.033H334.733C334.442 277.033 334.206 277.269 334.206 277.56C334.206 277.851 334.442 278.087 334.733 278.087ZM340.714 278.087H343.705C343.996 278.087 344.232 277.851 344.232 277.56C344.232 277.269 343.996 277.033 343.705 277.033H340.714C340.423 277.033 340.187 277.269 340.187 277.56C340.187 277.851 340.423 278.087 340.714 278.087ZM346.695 278.087H349.686C349.977 278.087 350.213 277.851 350.213 277.56C350.213 277.269 349.977 277.033 349.686 277.033H346.695C346.404 277.033 346.168 277.269 346.168 277.56C346.168 277.851 346.404 278.087 346.695 278.087ZM352.677 278.087H355.667C355.958 278.087 356.194 277.851 356.194 277.56C356.194 277.269 355.958 277.033 355.667 277.033H352.677C352.386 277.033 352.15 277.269 352.15 277.56C352.15 277.851 352.386 278.087 352.677 278.087ZM358.658 278.087H361.649C361.939 278.087 362.176 277.851 362.176 277.56C362.176 277.269 361.939 277.033 361.649 277.033H358.658C358.367 277.033 358.131 277.269 358.131 277.56C358.131 277.851 358.367 278.087 358.658 278.087ZM364.639 278.087H367.63C367.921 278.087 368.157 277.851 368.157 277.56C368.157 277.269 367.921 277.033 367.63 277.033H364.639C364.348 277.033 364.112 277.269 364.112 277.56C364.112 277.851 364.348 278.087 364.639 278.087ZM370.62 278.087H373.611C373.902 278.087 374.138 277.851 374.138 277.56C374.138 277.269 373.902 277.033 373.611 277.033H370.62C370.329 277.033 370.093 277.269 370.093 277.56C370.093 277.851 370.329 278.087 370.62 278.087ZM376.602 278.087H379.592C379.883 278.087 380.119 277.851 380.119 277.56C380.119 277.269 379.883 277.033 379.592 277.033H376.602C376.311 277.033 376.075 277.269 376.075 277.56C376.075 277.851 376.311 278.087 376.602 278.087ZM382.583 278.087H385.574C385.864 278.087 386.101 277.851 386.101 277.56C386.101 277.269 385.864 277.033 385.574 277.033H382.583C382.292 277.033 382.056 277.269 382.056 277.56C382.056 277.851 382.292 278.087 382.583 278.087ZM388.564 278.087H391.555C391.846 278.087 392.082 277.851 392.082 277.56C392.082 277.269 391.846 277.033 391.555 277.033H388.564C388.273 277.033 388.037 277.269 388.037 277.56C388.037 277.851 388.273 278.087 388.564 278.087ZM394.545 278.087H397.536C397.827 278.087 398.063 277.851 398.063 277.56C398.063 277.269 397.827 277.033 397.536 277.033H394.545C394.254 277.033 394.018 277.269 394.018 277.56C394.018 277.851 394.254 278.087 394.545 278.087ZM400.527 278.087H403.517C403.808 278.087 404.044 277.851 404.044 277.56C404.044 277.269 403.808 277.033 403.517 277.033H400.527C400.236 277.033 400 277.269 400 277.56C400 277.851 400.236 278.087 400.527 278.087ZM406.508 278.087H409.498C409.789 278.087 410.026 277.851 410.026 277.56C410.026 277.269 409.789 277.033 409.498 277.033H406.508C406.217 277.033 405.981 277.269 405.981 277.56C405.981 277.851 406.217 278.087 406.508 278.087ZM412.489 278.087H415.48C415.771 278.087 416.007 277.851 416.007 277.56C416.007 277.269 415.771 277.033 415.48 277.033H412.489C412.198 277.033 411.962 277.269 411.962 277.56C411.962 277.851 412.198 278.087 412.489 278.087ZM418.47 278.087H421.461C421.752 278.087 421.988 277.851 421.988 277.56C421.988 277.269 421.752 277.033 421.461 277.033H418.47C418.179 277.033 417.943 277.269 417.943 277.56C417.943 277.851 418.179 278.087 418.47 278.087ZM424.452 278.087H427.442C427.733 278.087 427.969 277.851 427.969 277.56C427.969 277.269 427.733 277.033 427.442 277.033H424.452C424.161 277.033 423.925 277.269 423.925 277.56C423.925 277.851 424.161 278.087 424.452 278.087ZM430.433 278.087H433.424C433.714 278.087 433.951 277.851 433.951 277.56C433.951 277.269 433.714 277.033 433.424 277.033H430.433C430.142 277.033 429.906 277.269 429.906 277.56C429.906 277.851 430.142 278.087 430.433 278.087ZM436.414 278.087H439.405C439.696 278.087 439.932 277.851 439.932 277.56C439.932 277.269 439.696 277.033 439.405 277.033H436.414C436.123 277.033 435.887 277.269 435.887 277.56C435.887 277.851 436.123 278.087 436.414 278.087ZM442.395 278.087H445.386C445.677 278.087 445.913 277.851 445.913 277.56C445.913 277.269 445.677 277.033 445.386 277.033H442.395C442.104 277.033 441.868 277.269 441.868 277.56C441.868 277.851 442.104 278.087 442.395 278.087ZM448.377 278.087H451.367C451.658 278.087 451.894 277.851 451.894 277.56C451.894 277.269 451.658 277.033 451.367 277.033H448.377C448.086 277.033 447.85 277.269 447.85 277.56C447.85 277.851 448.086 278.087 448.377 278.087ZM454.358 278.087H457.345C457.636 278.088 457.873 277.854 457.876 277.563C457.877 277.271 457.643 277.034 457.352 277.033H457.297H454.358C454.067 277.033 453.831 277.269 453.831 277.56C453.831 277.851 454.067 278.087 454.358 278.087ZM460.101 278.572C460.994 278.893 461.816 279.361 462.537 279.949C462.764 280.132 463.096 280.099 463.279 279.873C463.463 279.647 463.429 279.315 463.203 279.131C462.39 278.47 461.464 277.941 460.457 277.58C460.183 277.481 459.882 277.624 459.784 277.899C459.684 278.172 459.828 278.474 460.101 278.572ZM464.381 282.055C464.865 282.844 465.221 283.719 465.42 284.651C465.48 284.936 465.761 285.117 466.045 285.057C466.33 284.996 466.511 284.717 466.451 284.431C466.226 283.379 465.825 282.391 465.28 281.503C465.127 281.255 464.802 281.177 464.555 281.33C464.307 281.482 464.229 281.806 464.381 282.055ZM465.602 287.518V290.508C465.602 290.799 465.839 291.035 466.13 291.035C466.42 291.035 466.657 290.799 466.657 290.508V287.518C466.657 287.227 466.42 286.991 466.13 286.991C465.839 286.991 465.602 287.227 465.602 287.518ZM465.602 293.499V296.49C465.602 296.78 465.839 297.017 466.13 297.017C466.42 297.017 466.657 296.78 466.657 296.49V293.499C466.657 293.208 466.42 292.972 466.13 292.972C465.839 292.972 465.602 293.208 465.602 293.499ZM465.602 299.48V302.471C465.602 302.762 465.839 302.998 466.13 302.998C466.42 302.998 466.657 302.762 466.657 302.471V299.48C466.657 299.189 466.42 298.953 466.13 298.953C465.839 298.953 465.602 299.189 465.602 299.48ZM465.602 305.461V308.452C465.602 308.743 465.839 308.979 466.13 308.979C466.42 308.979 466.657 308.743 466.657 308.452V305.461C466.657 305.17 466.42 304.934 466.13 304.934C465.839 304.934 465.602 305.17 465.602 305.461ZM465.602 311.443V314.433C465.602 314.724 465.839 314.96 466.13 314.96C466.42 314.96 466.657 314.724 466.657 314.433V311.443C466.657 311.152 466.42 310.916 466.13 310.916C465.839 310.916 465.602 311.152 465.602 311.443ZM465.602 317.424V320.415C465.602 320.705 465.839 320.942 466.13 320.942C466.42 320.942 466.657 320.705 466.657 320.415V317.424C466.657 317.133 466.42 316.897 466.13 316.897C465.839 316.897 465.602 317.133 465.602 317.424ZM465.602 323.405V326.396C465.602 326.687 465.839 326.923 466.13 326.923C466.42 326.923 466.657 326.687 466.657 326.396V323.405C466.657 323.114 466.42 322.878 466.13 322.878C465.839 322.878 465.602 323.114 465.602 323.405ZM465.602 329.386V330.237C465.602 330.924 465.519 331.592 465.362 332.229C465.293 332.513 465.465 332.798 465.748 332.867C466.03 332.937 466.316 332.765 466.386 332.481C466.563 331.762 466.657 331.01 466.657 330.237V329.386C466.657 329.095 466.42 328.859 466.13 328.859C465.839 328.859 465.602 329.095 465.602 329.386ZM464.243 334.793C463.726 335.58 463.08 336.272 462.335 336.841C462.103 337.018 462.058 337.349 462.236 337.58C462.413 337.811 462.743 337.855 462.974 337.679C463.814 337.037 464.541 336.257 465.123 335.373C465.283 335.129 465.216 334.803 464.972 334.642C464.73 334.483 464.403 334.551 464.243 334.793ZM459.856 338.141C459.051 338.401 458.191 338.543 457.297 338.543H454.306C454.015 338.543 453.779 338.779 453.779 339.07C453.779 339.361 454.015 339.597 454.306 339.597H457.297C458.302 339.597 459.272 339.439 460.181 339.144C460.458 339.054 460.61 338.757 460.52 338.481C460.431 338.203 460.134 338.052 459.856 338.141Z" fill="#5B87CD"/>
  <path d="M445.022 187.603H442.031C441.74 187.603 441.504 187.839 441.504 188.13C441.504 188.421 441.74 188.657 442.031 188.657H445.022C445.313 188.657 445.549 188.421 445.549 188.13C445.549 187.839 445.313 187.603 445.022 187.603ZM439.041 187.603H436.05C435.759 187.603 435.523 187.839 435.523 188.13C435.523 188.421 435.759 188.657 436.05 188.657H439.041C439.332 188.657 439.568 188.421 439.568 188.13C439.568 187.839 439.332 187.603 439.041 187.603ZM433.06 187.603H430.069C429.778 187.603 429.542 187.839 429.542 188.13C429.542 188.421 429.778 188.657 430.069 188.657H433.06C433.351 188.657 433.587 188.421 433.587 188.13C433.587 187.839 433.351 187.603 433.06 187.603ZM427.078 187.603H424.088C423.797 187.603 423.561 187.839 423.561 188.13C423.561 188.421 423.797 188.657 424.088 188.657H427.078C427.369 188.657 427.605 188.421 427.605 188.13C427.605 187.839 427.369 187.603 427.078 187.603ZM421.097 187.603H418.106C417.816 187.603 417.579 187.839 417.579 188.13C417.579 188.421 417.816 188.657 418.106 188.657H421.097C421.388 188.657 421.624 188.421 421.624 188.13C421.624 187.839 421.388 187.603 421.097 187.603ZM415.116 187.603H412.125C411.834 187.603 411.598 187.839 411.598 188.13C411.598 188.421 411.834 188.657 412.125 188.657H415.116C415.407 188.657 415.643 188.421 415.643 188.13C415.643 187.839 415.407 187.603 415.116 187.603ZM409.135 187.603H406.144C405.853 187.603 405.617 187.839 405.617 188.13C405.617 188.421 405.853 188.657 406.144 188.657H409.135C409.426 188.657 409.662 188.421 409.662 188.13C409.662 187.839 409.426 187.603 409.135 187.603ZM403.153 187.603H400.163C399.872 187.603 399.636 187.839 399.636 188.13C399.636 188.421 399.872 188.657 400.163 188.657H403.153C403.444 188.657 403.68 188.421 403.68 188.13C403.68 187.839 403.444 187.603 403.153 187.603ZM397.172 187.603H394.181C393.891 187.603 393.654 187.839 393.654 188.13C393.654 188.421 393.891 188.657 394.181 188.657H397.172C397.463 188.657 397.699 188.421 397.699 188.13C397.699 187.839 397.463 187.603 397.172 187.603ZM391.191 187.603H389.406C389.03 187.603 388.662 187.567 388.306 187.5C388.02 187.446 387.744 187.634 387.69 187.919C387.635 188.205 387.823 188.481 388.11 188.536C388.529 188.616 388.963 188.657 389.406 188.657H391.191C391.482 188.657 391.718 188.421 391.718 188.13C391.718 187.839 391.482 187.603 391.191 187.603ZM385.83 186.382C385.108 185.823 384.52 185.097 384.125 184.266C383.999 184.002 383.685 183.89 383.423 184.016C383.159 184.14 383.048 184.455 383.173 184.718C383.641 185.701 384.334 186.555 385.184 187.215C385.415 187.393 385.746 187.352 385.924 187.121C386.102 186.892 386.06 186.561 385.83 186.382ZM383.562 181.593V178.603C383.562 178.312 383.326 178.076 383.035 178.076C382.744 178.076 382.508 178.312 382.508 178.603V181.593C382.508 181.884 382.744 182.12 383.035 182.12C383.326 182.12 383.562 181.884 383.562 181.593ZM383.562 175.612V172.621C383.562 172.331 383.326 172.094 383.035 172.094C382.744 172.094 382.508 172.331 382.508 172.621V175.612C382.508 175.903 382.744 176.139 383.035 176.139C383.326 176.139 383.562 175.903 383.562 175.612ZM383.562 169.631V166.64C383.562 166.349 383.326 166.113 383.035 166.113C382.744 166.113 382.508 166.349 382.508 166.64V169.631C382.508 169.922 382.744 170.158 383.035 170.158C383.326 170.158 383.562 169.922 383.562 169.631ZM383.562 163.65V160.659C383.562 160.368 383.326 160.132 383.035 160.132C382.744 160.132 382.508 160.368 382.508 160.659V163.65C382.508 163.941 382.744 164.177 383.035 164.177C383.326 164.177 383.562 163.941 383.562 163.65ZM383.562 157.668V154.678C383.562 154.387 383.326 154.151 383.035 154.151C382.744 154.151 382.508 154.387 382.508 154.678V157.668C382.508 157.959 382.744 158.195 383.035 158.195C383.326 158.195 383.562 157.959 383.562 157.668ZM383.562 151.687V151.315C383.562 150.483 383.735 149.696 384.047 148.981C384.163 148.713 384.042 148.403 383.775 148.286C383.507 148.171 383.197 148.292 383.08 148.559C382.712 149.404 382.508 150.337 382.508 151.315V151.687C382.508 151.978 382.744 152.214 383.035 152.214C383.326 152.214 383.562 151.978 383.562 151.687ZM385.683 146.81C386.38 146.234 387.21 145.817 388.122 145.613C388.406 145.549 388.584 145.267 388.521 144.983C388.457 144.699 388.175 144.52 387.891 144.584C386.814 144.826 385.833 145.319 385.011 145.998C384.787 146.183 384.755 146.515 384.941 146.74C385.126 146.965 385.459 146.996 385.683 146.81ZM390.985 145.471H393.976C394.267 145.471 394.503 145.236 394.503 144.944C394.503 144.653 394.267 144.417 393.976 144.417H390.985C390.694 144.417 390.458 144.653 390.458 144.944C390.458 145.236 390.694 145.471 390.985 145.471ZM396.967 145.471H399.957C400.248 145.471 400.484 145.236 400.484 144.944C400.484 144.653 400.248 144.417 399.957 144.417H396.967C396.676 144.417 396.439 144.653 396.439 144.944C396.439 145.236 396.676 145.471 396.967 145.471ZM402.948 145.471H405.938C406.229 145.471 406.465 145.236 406.465 144.944C406.465 144.653 406.229 144.417 405.938 144.417H402.948C402.657 144.417 402.421 144.653 402.421 144.944C402.421 145.236 402.657 145.471 402.948 145.471ZM408.929 145.471H411.92C412.211 145.471 412.447 145.236 412.447 144.944C412.447 144.653 412.211 144.417 411.92 144.417H408.929C408.638 144.417 408.402 144.653 408.402 144.944C408.402 145.236 408.638 145.471 408.929 145.471ZM414.91 145.471H417.901C418.192 145.471 418.428 145.236 418.428 144.944C418.428 144.653 418.192 144.417 417.901 144.417H414.91C414.619 144.417 414.383 144.653 414.383 144.944C414.383 145.236 414.619 145.471 414.91 145.471ZM420.892 145.471H423.882C424.173 145.471 424.409 145.236 424.409 144.944C424.409 144.653 424.173 144.417 423.882 144.417H420.892C420.601 144.417 420.364 144.653 420.364 144.944C420.364 145.236 420.601 145.471 420.892 145.471ZM426.873 145.471H429.863C430.154 145.471 430.39 145.236 430.39 144.944C430.39 144.653 430.154 144.417 429.863 144.417H426.873C426.582 144.417 426.346 144.653 426.346 144.944C426.346 145.236 426.582 145.471 426.873 145.471ZM432.854 145.471H435.845C436.136 145.471 436.372 145.236 436.372 144.944C436.372 144.653 436.136 144.417 435.845 144.417H432.854C432.563 144.417 432.327 144.653 432.327 144.944C432.327 145.236 432.563 145.471 432.854 145.471ZM438.835 145.471H441.826C442.117 145.471 442.353 145.236 442.353 144.944C442.353 144.653 442.117 144.417 441.826 144.417H438.835C438.544 144.417 438.308 144.653 438.308 144.944C438.308 145.236 438.544 145.471 438.835 145.471ZM444.816 145.471H447.807C448.098 145.471 448.334 145.236 448.334 144.944C448.334 144.653 448.098 144.417 447.807 144.417H444.816C444.526 144.417 444.289 144.653 444.289 144.944C444.289 145.236 444.526 145.471 444.816 145.471ZM450.798 145.471H451.003C451.889 145.471 452.726 145.668 453.476 146.019C453.741 146.142 454.054 146.028 454.177 145.765C454.301 145.501 454.187 145.187 453.923 145.064C453.037 144.649 452.046 144.417 451.003 144.417H450.798C450.507 144.417 450.271 144.653 450.271 144.944C450.271 145.236 450.507 145.471 450.798 145.471ZM455.605 147.712C456.161 148.421 456.557 149.263 456.737 150.181C456.794 150.466 457.07 150.652 457.356 150.596C457.641 150.539 457.828 150.263 457.771 149.977C457.558 148.892 457.09 147.897 456.433 147.06C456.254 146.832 455.923 146.792 455.693 146.972C455.464 147.151 455.424 147.482 455.605 147.712ZM456.848 153.061V156.051C456.848 156.342 457.084 156.578 457.375 156.578C457.666 156.578 457.902 156.342 457.902 156.051V153.061C457.902 152.77 457.666 152.534 457.375 152.534C457.084 152.534 456.848 152.77 456.848 153.061ZM456.848 159.042V162.033C456.848 162.324 457.084 162.56 457.375 162.56C457.666 162.56 457.902 162.324 457.902 162.033V159.042C457.902 158.751 457.666 158.515 457.375 158.515C457.084 158.515 456.848 158.751 456.848 159.042ZM456.848 165.023V168.014C456.848 168.305 457.084 168.541 457.375 168.541C457.666 168.541 457.902 168.305 457.902 168.014V165.023C457.902 164.732 457.666 164.496 457.375 164.496C457.084 164.496 456.848 164.732 456.848 165.023ZM456.848 171.004V173.995C456.848 174.286 457.084 174.522 457.375 174.522C457.666 174.522 457.902 174.286 457.902 173.995V171.004C457.902 170.713 457.666 170.477 457.375 170.477C457.084 170.477 456.848 170.713 456.848 171.004ZM456.848 176.986V179.976C456.848 180.267 457.084 180.503 457.375 180.503C457.666 180.503 457.902 180.267 457.902 179.976V176.986C457.902 176.695 457.666 176.459 457.375 176.459C457.084 176.459 456.848 176.695 456.848 176.986ZM456.743 182.86C456.568 183.781 456.177 184.623 455.625 185.337C455.447 185.566 455.489 185.897 455.719 186.076C455.948 186.254 456.279 186.213 456.457 185.982C457.11 185.142 457.572 184.145 457.779 183.059C457.833 182.773 457.646 182.497 457.36 182.442C457.074 182.387 456.798 182.575 456.743 182.86ZM453.507 187.041C452.749 187.402 451.901 187.603 451.003 187.603H448.013C447.722 187.603 447.486 187.839 447.486 188.13C447.486 188.421 447.722 188.657 448.013 188.657H451.003C452.06 188.657 453.063 188.419 453.96 187.993C454.223 187.869 454.334 187.554 454.21 187.291C454.085 187.029 453.77 186.916 453.507 187.041Z" fill="#5B87CD"/>
  <path d="M464.265 267.329H337.048C332.856 267.329 329.457 263.931 329.457 259.738V206.081C329.457 201.889 332.856 198.49 337.048 198.49H464.265C468.457 198.49 471.856 201.889 471.856 206.081V259.738C471.856 263.931 468.457 267.329 464.265 267.329Z" fill="#EBF1FA"/>
  <path d="M466.13 200.5V254.188C466.13 258.373 462.735 261.757 458.55 261.757H331.873C327.688 261.757 324.294 258.373 324.294 254.188V200.5C324.294 196.315 327.688 192.921 331.873 192.921H458.55C462.735 192.921 466.13 196.315 466.13 200.5Z" fill="#7288CD"/>
  <path d="M373.291 256.162H335.971C333.141 256.162 330.848 253.868 330.848 251.038V213.719C330.848 210.888 333.141 208.595 335.971 208.595H373.291C376.121 208.595 378.415 210.888 378.415 213.719V251.038C378.415 253.868 376.121 256.162 373.291 256.162Z" fill="white"/>
  <path d="M417.521 214.612H384.653C383.759 214.612 383.035 213.888 383.035 212.994C383.035 212.101 383.759 211.376 384.653 211.376H417.521C418.415 211.376 419.14 212.101 419.14 212.994C419.14 213.888 418.415 214.612 417.521 214.612Z" fill="#A5B8E4"/>
  <path d="M402.543 221.075H384.653C383.759 221.075 383.035 220.35 383.035 219.457C383.035 218.563 383.759 217.838 384.653 217.838H402.543C403.437 217.838 404.161 218.563 404.161 219.457C404.161 220.35 403.437 221.075 402.543 221.075Z" fill="#A5B8E4"/>
  <path d="M457.537 221.075H409.128C408.234 221.075 407.51 220.35 407.51 219.457C407.51 218.563 408.234 217.838 409.128 217.838H457.537C458.43 217.838 459.155 218.563 459.155 219.457C459.155 220.35 458.43 221.075 457.537 221.075Z" fill="#A5B8E4"/>
  <path d="M412.333 227.536H384.653C383.759 227.536 383.035 226.812 383.035 225.918C383.035 225.024 383.759 224.3 384.653 224.3H412.333C413.226 224.3 413.951 225.024 413.951 225.918C413.951 226.812 413.226 227.536 412.333 227.536Z" fill="#A5B8E4"/>
  <path d="M435.829 227.536H418.428C417.534 227.536 416.81 226.812 416.81 225.918C416.81 225.024 417.534 224.3 418.428 224.3H435.829C436.721 224.3 437.447 225.024 437.447 225.918C437.447 226.812 436.721 227.536 435.829 227.536Z" fill="#A5B8E4"/>
  <path d="M457.536 227.536H441.511C440.618 227.536 439.893 226.812 439.893 225.918C439.893 225.024 440.618 224.3 441.511 224.3H457.536C458.43 224.3 459.154 225.024 459.154 225.918C459.154 226.812 458.43 227.536 457.536 227.536Z" fill="#A5B8E4"/>
  <path d="M457.536 233.996H384.653C383.759 233.996 383.035 233.272 383.035 232.378C383.035 231.484 383.759 230.76 384.653 230.76H457.536C458.43 230.76 459.154 231.484 459.154 232.378C459.154 233.272 458.43 233.996 457.536 233.996Z" fill="#A5B8E4"/>
  <path d="M424.766 240.457H384.653C383.759 240.457 383.035 239.733 383.035 238.839C383.035 237.945 383.759 237.221 384.653 237.221H424.766C425.659 237.221 426.384 237.945 426.384 238.839C426.384 239.733 425.659 240.457 424.766 240.457Z" fill="#A5B8E4"/>
  <path d="M457.537 240.457H431.232C430.339 240.457 429.614 239.733 429.614 238.839C429.614 237.945 430.339 237.221 431.232 237.221H457.537C458.43 237.221 459.155 237.945 459.155 238.839C459.155 239.733 458.43 240.457 457.537 240.457Z" fill="#A5B8E4"/>
  <path d="M408.221 246.918H384.653C383.759 246.918 383.035 246.194 383.035 245.3C383.035 244.406 383.759 243.682 384.653 243.682H408.221C409.115 243.682 409.839 244.406 409.839 245.3C409.839 246.194 409.115 246.918 408.221 246.918Z" fill="#A5B8E4"/>
  <path d="M438.167 246.918H414.6C413.706 246.918 412.981 246.194 412.981 245.3C412.981 244.406 413.706 243.682 414.6 243.682H438.167C439.061 243.682 439.785 244.406 439.785 245.3C439.785 246.194 439.061 246.918 438.167 246.918Z" fill="#A5B8E4"/>
  <path d="M457.536 246.918H443.86C442.966 246.918 442.242 246.194 442.242 245.3C442.242 244.406 442.966 243.682 443.86 243.682H457.536C458.43 243.682 459.154 244.406 459.154 245.3C459.154 246.194 458.43 246.918 457.536 246.918Z" fill="#A5B8E4"/>
  <path d="M417.521 253.381H384.653C383.759 253.381 383.035 252.656 383.035 251.763C383.035 250.869 383.759 250.144 384.653 250.144H417.521C418.415 250.144 419.14 250.869 419.14 251.763C419.14 252.656 418.415 253.381 417.521 253.381Z" fill="#A5B8E4"/>
  <path d="M457.536 214.612H424.668C423.774 214.612 423.05 213.888 423.05 212.994C423.05 212.101 423.774 211.376 424.668 211.376H457.536C458.43 211.376 459.154 212.101 459.154 212.994C459.154 213.888 458.43 214.612 457.536 214.612Z" fill="#A5B8E4"/>
  <path d="M466.13 200.5V202.756H324.294V200.5C324.294 196.315 327.688 192.921 331.873 192.921H458.55C462.735 192.921 466.13 196.315 466.13 200.5Z" fill="#A5B8E4"/>
  <path d="M439.395 198.015C439.395 198.986 438.609 199.772 437.638 199.772C436.668 199.772 435.881 198.986 435.881 198.015C435.881 197.045 436.668 196.259 437.638 196.259C438.609 196.259 439.395 197.045 439.395 198.015Z" fill="#D7DCF2"/>
  <path d="M448.385 198.015C448.385 198.986 447.597 199.772 446.627 199.772C445.658 199.772 444.87 198.986 444.87 198.015C444.87 197.045 445.658 196.259 446.627 196.259C447.597 196.259 448.385 197.045 448.385 198.015Z" fill="#D7DCF2"/>
  <path d="M457.375 198.015C457.375 198.986 456.587 199.772 455.618 199.772C454.647 199.772 453.86 198.986 453.86 198.015C453.86 197.045 454.647 196.259 455.618 196.259C456.587 196.259 457.375 197.045 457.375 198.015Z" fill="#D7DCF2"/>
  <path d="M368.206 188.13V187.658H340.134C338.182 187.658 336.419 186.868 335.139 185.589C333.859 184.309 333.07 182.545 333.068 180.593V152.521C333.07 150.569 333.859 148.805 335.139 147.525C336.419 146.246 338.182 145.456 340.134 145.455H368.206C370.159 145.456 371.922 146.246 373.202 147.525C374.482 148.805 375.271 150.569 375.271 152.521V180.593C375.271 182.545 374.482 184.309 373.202 185.589C371.922 186.868 370.159 187.658 368.206 187.658V188.13V188.603C372.63 188.603 376.216 185.016 376.216 180.593V152.521C376.216 148.098 372.63 144.512 368.206 144.512H340.134C335.711 144.512 332.125 148.098 332.125 152.521V180.593C332.125 185.016 335.711 188.603 340.134 188.603H368.206V188.13Z" fill="#4259B1"/>
  <path d="M346.817 159.693L340.601 165.909C340.257 166.253 340.257 166.811 340.601 167.155L346.866 173.42C347.21 173.765 347.768 173.765 348.112 173.42C348.456 173.077 348.456 172.519 348.112 172.174L342.47 166.532L348.063 160.939C348.408 160.594 348.408 160.037 348.063 159.693C347.719 159.348 347.162 159.348 346.817 159.693Z" fill="#4259B1"/>
  <path d="M360.278 160.939L365.871 166.532L360.228 172.174C359.885 172.519 359.885 173.077 360.228 173.42C360.572 173.765 361.131 173.765 361.474 173.42L367.74 167.155C367.904 166.991 367.998 166.764 367.998 166.532C367.998 166.3 367.904 166.073 367.74 165.909L361.524 159.693C361.179 159.348 360.622 159.348 360.278 159.693C359.933 160.037 359.933 160.594 360.278 160.939Z" fill="#4259B1"/>
  <path d="M356.283 159.944L350.461 172.426C350.255 172.866 350.446 173.39 350.887 173.597C351.328 173.803 351.852 173.612 352.058 173.17L357.88 160.689C358.085 160.248 357.895 159.723 357.453 159.518C357.012 159.312 356.488 159.503 356.283 159.944Z" fill="#4259B1"/>
  <path d="M466.13 39.6683V127.447C466.13 132.212 462.272 136.07 457.507 136.07H332.917C328.163 136.07 324.294 132.212 324.294 127.447V39.6683C324.294 34.9036 328.163 31.0454 332.917 31.0454H457.507C462.272 31.0454 466.13 34.9036 466.13 39.6683Z" fill="#A5B8E4"/>
  <path d="M457.96 58.78C457.96 70.1332 448.758 79.3359 437.405 79.3359C426.051 79.3359 416.849 70.1332 416.849 58.78C416.849 47.4268 426.051 38.2241 437.405 38.2241C448.758 38.2241 457.96 47.4268 457.96 58.78Z" fill="#EBF1FA"/>
  <path d="M407.667 136.07H332.917C328.163 136.07 324.294 132.212 324.294 127.447V113.627L357.004 56.9669C358.712 54.0048 362.992 54.0048 364.7 56.9669L389.398 99.7443L407.74 131.516C408.626 133.034 408.489 134.763 407.667 136.07Z" fill="white"/>
  <path d="M439.903 136.07H368.421L389.398 99.7443L400.699 80.1687C402.238 77.5017 406.086 77.5017 407.625 80.1687L439.903 136.07Z" fill="#EBF1FA"/>
  <path d="M611.146 385.819H541.443V281.069H611.146V385.819Z" fill="#D7DCF2"/>
  <path d="M611.146 385.819H637.835V281.069H611.146V385.819Z" fill="#D7DCF2"/>
  <path d="M634.561 288.436H614.967V285.092H634.561V288.436Z" fill="#A5B8E4"/>
  <path d="M634.561 295.617H614.967V292.275H634.561V295.617Z" fill="#A5B8E4"/>
  <path d="M634.561 302.799H614.967V299.456H634.561V302.799Z" fill="#A5B8E4"/>
  <path d="M634.561 309.979H614.967V306.637H634.561V309.979Z" fill="#A5B8E4"/>
  <path d="M634.561 317.162H614.967V313.818H634.561V317.162Z" fill="#A5B8E4"/>
  <path d="M634.561 324.344H614.967V321.001H634.561V324.344Z" fill="#A5B8E4"/>
  <path d="M634.561 331.525H614.967V328.183H634.561V331.525Z" fill="#A5B8E4"/>
  <path d="M634.561 338.708H614.967V335.364H634.561V338.708Z" fill="#A5B8E4"/>
  <path d="M634.561 345.889H614.967V342.545H634.561V345.889Z" fill="#A5B8E4"/>
  <path d="M634.561 353.07H614.967V349.728H634.561V353.07Z" fill="#A5B8E4"/>
  <path d="M634.561 360.252H614.967V356.909H634.561V360.252Z" fill="#A5B8E4"/>
  <path d="M634.561 367.435H614.967V364.091H634.561V367.435Z" fill="#A5B8E4"/>
  <path d="M634.561 374.616H614.967V371.272H634.561V374.616Z" fill="#A5B8E4"/>
  <path d="M634.561 381.798H614.967V378.455H634.561V381.798Z" fill="#A5B8E4"/>
  <path d="M530.12 385.819H565.546C565.546 385.819 567.524 379.511 563.234 371.697C563.234 371.697 560.383 373.983 551.842 372.437C551.842 372.437 548.278 375.464 545.816 376.647C543.342 377.845 529.166 380.628 530.12 385.819Z" fill="#1F0D10"/>
  <path d="M532.592 285.934C534.88 299.587 545.437 345.775 549.976 373.06C558.271 373.767 562.255 372.815 564.365 372.328C563.952 362.813 563.133 340.055 563.229 330.074C563.386 313.206 564.179 290.962 556.753 278.755L531.785 280.72C531.937 282.038 532.076 283.111 532.197 283.876C532.317 284.612 532.454 285.291 532.592 285.934Z" fill="#192C4A"/>
  <path d="M466.046 385.819H501.471C501.471 385.819 503.451 379.511 499.161 371.697C499.161 371.697 496.309 373.983 487.769 372.437C487.769 372.437 484.205 375.464 481.743 376.647C479.269 377.845 465.091 380.628 466.046 385.819Z" fill="#1F0D10"/>
  <path d="M486.742 372.262C493.51 373.937 498.413 373.774 500.735 373.513C502.619 362.545 505.594 338.413 508.271 327.101C512.427 309.52 516.493 285.34 513.668 276.713L489.107 270.545C489.026 271.322 487.026 345.325 486.742 372.262Z" fill="#0D1F2B"/>
  <path d="M584.492 245.369C583.999 240.516 583.431 236.971 583.431 236.971L555.991 243.687L532.682 248.997C524.04 250.921 513.601 253.24 504.397 255.32C494.071 257.667 487.215 265.511 489.477 275.852L492.065 288.395C506.509 288.197 574.419 281.687 580.228 278.755C586.791 275.44 588.765 263.723 584.492 245.369Z" fill="#0D1F2B"/>
  <path d="M625.454 245.369C624.961 240.516 622.594 235.308 622.594 235.308L596.953 243.687L573.643 248.997C565.002 250.921 554.562 253.24 545.359 255.32C535.033 257.667 528.177 265.511 530.438 275.852L533.027 288.395C547.471 288.197 607.841 286.093 621.189 278.755C627.631 275.212 629.727 263.723 625.454 245.369Z" fill="#192C4A"/>
  <path d="M551.697 167.983L541.252 209.704C541.252 209.704 542.331 220.252 552.983 215.075C563.636 209.898 570.695 176.659 570.695 176.659L551.697 167.983Z" fill="#F57787"/>
  <path d="M569.368 191.317C568.076 191.005 566.843 190.663 565.653 190.307C564.435 189.949 563.276 189.579 562.176 189.192C552.251 185.789 546.887 181.703 546.887 181.703C550.007 168.137 553.767 159.029 557.109 153.027C557.199 152.877 557.288 152.744 557.363 152.58C557.452 152.432 557.54 152.283 557.629 152.135C559.428 149.148 562.013 146.637 564.896 144.572C565.193 144.364 565.475 144.171 565.772 143.963L567.005 165.745L567.213 167.989L569.368 191.317Z" fill="#D7DCF2"/>
  <path d="M569.369 191.317C568.077 191.005 566.843 190.663 565.654 190.307C564.435 189.949 563.277 189.579 562.177 189.192C564.261 174.519 566.145 165.299 566.145 165.299L567.214 167.989L569.369 191.317Z" fill="#B1E5ED"/>
  <path d="M631.033 153.651C630.779 160.099 629.65 170.455 628.67 180.856C628.358 184.155 628.061 187.468 627.807 190.663C627.63 192.655 624.629 203.279 624.509 205.18C623.974 214.274 619.517 221.079 623.737 234.927C624.747 238.24 624.999 239.95 624.999 241.316C624.999 242.267 623.766 243.263 623.277 243.531C621.507 244.556 618.031 245.268 613.811 245.788H613.797C605.49 246.799 594.287 246.992 587.526 246.992C578.447 246.992 564.822 245.551 563.098 243.263C561.523 241.168 562.979 238.122 563.722 233.916C567.066 214.942 565.877 205.047 565.669 191.347C565.669 191.006 565.654 190.663 565.654 190.307C565.313 169.178 563.915 151.095 564.897 144.572C565.194 144.364 565.475 144.171 565.773 143.963C567.214 142.982 568.626 142.106 569.993 141.332C570.111 141.274 570.261 141.184 570.409 141.095C570.825 140.858 571.255 140.634 571.657 140.411C571.806 140.322 571.969 140.248 572.133 140.174C575.209 138.672 579.695 137.068 582.266 136.176C582.593 136.072 582.89 135.968 583.143 135.895C585.565 135.746 588.195 135.716 591.033 135.789C593.499 135.864 597.274 136.191 601.374 136.727H601.389C606.025 137.32 611.091 138.198 615.118 139.296L615.193 139.327C615.951 139.564 620.869 141.407 625.995 146.889C627.703 148.703 629.457 150.931 631.033 153.651Z" fill="#D7DCF2"/>
  <path d="M623.736 234.927C624.747 238.24 624.999 239.949 624.999 241.316C624.999 242.267 623.766 243.263 623.276 243.531C621.507 244.556 618.031 245.268 613.811 245.788C615.55 245.58 618.55 242.823 618.551 240.336C618.551 238.593 616.292 226.829 616.916 219.236C617.54 211.659 618.774 199.593 616.426 189.935C614.063 180.277 611.85 167.573 611.85 167.573L625.088 175.567C625.088 175.567 626.798 177.959 628.67 180.856C628.358 184.155 628.06 187.468 627.807 190.663C627.63 192.655 619.516 221.079 623.736 234.927Z" fill="#B1E5ED"/>
  <path d="M565.494 97.8077C565.494 97.8077 566.639 111.654 571.23 112.585C575.822 113.514 574.694 107.632 574.694 107.632L574.053 101.057L565.494 97.8077Z" fill="#192C4A"/>
  <path d="M586.664 147.989C577.675 146.919 581.032 138.183 582.265 136.176C582.592 136.072 584.137 135.597 584.256 135.523L584.287 135.508C584.584 135.269 584.807 134.913 584.984 134.468C585.861 132.164 585.46 127.573 585.431 127.276V127.261V126.429C585.579 125.879 585.728 125.359 585.847 124.869L590.572 121.155L600.572 113.293C600.572 113.293 597.912 126.444 600.052 134.735C600.215 135.359 600.541 136.236 601.373 136.727H601.388C601.656 136.904 601.983 137.023 602.384 137.083C604.836 138.241 601.419 149.743 586.664 147.989Z" fill="#F57787"/>
  <path d="M594.588 121.651C594.588 121.651 594.504 130.427 584.979 134.463C585.864 132.172 585.456 127.578 585.428 127.283L589.418 124.15L594.588 121.651Z" fill="#EC4E5E"/>
  <path d="M567.689 99.7782C567.689 99.7782 569.768 128.508 577.525 130.949C577.525 130.949 587.408 131.88 594.504 122.334C596.55 119.584 599.132 118.966 599.976 115.645C601.347 110.252 603.28 100.301 600.813 94.3048C597.301 85.7648 568.023 78.9849 567.689 99.7782Z" fill="#F57787"/>
  <path d="M600.931 89.5637C600.805 84.345 595.522 82.3957 595.522 82.3957C590.263 79.9344 579.335 80.9957 568.069 83.5091C566.926 83.7637 565.658 83.6064 564.438 83.4477C562.835 83.2384 561.315 83.0304 560.269 83.757C558.038 85.3037 560.258 92.3704 560.258 92.3704C564.605 105.532 580.597 101.252 585.402 99.6277C586.545 103.016 586.398 107.728 589.247 110.157C590.871 111.542 593.693 111.581 596.561 111.104C596.914 111.774 598.241 112.366 598.51 113.288C599.414 116.365 599.285 121.174 599.257 124.888L600.613 124.225C600.79 123.22 614.817 89.9944 600.931 89.5637Z" fill="#192C4A"/>
  <path d="M575.646 109.455L575.317 109.511C575.368 109.81 575.393 110.106 575.393 110.394C575.393 111.331 575.133 112.188 574.7 112.83C574.264 113.472 573.666 113.896 572.962 114.016C572.83 114.039 572.698 114.051 572.566 114.051C571.094 114.063 569.601 112.616 569.251 110.543C569.2 110.243 569.176 109.947 569.176 109.659C569.175 108.722 569.435 107.866 569.868 107.223C570.304 106.582 570.902 106.156 571.605 106.036C571.737 106.014 571.869 106.003 572.001 106.003C573.473 105.99 574.967 107.436 575.317 109.511L575.646 109.455L575.976 109.399C575.58 107.088 573.916 105.348 572.001 105.335C571.832 105.335 571.662 105.348 571.493 105.378C570.586 105.531 569.831 106.084 569.315 106.85C568.797 107.616 568.508 108.599 568.508 109.659C568.508 109.984 568.534 110.318 568.592 110.655C568.988 112.964 570.652 114.706 572.566 114.718C572.736 114.719 572.905 114.704 573.074 114.675C573.981 114.522 574.737 113.968 575.253 113.203C575.771 112.436 576.06 111.454 576.06 110.394C576.06 110.068 576.033 109.735 575.976 109.399L575.646 109.455Z" fill="white"/>
  <path d="M585.02 107.703L584.691 107.759C584.742 108.059 584.766 108.355 584.766 108.643C584.766 109.58 584.508 110.436 584.073 111.077C583.638 111.72 583.04 112.145 582.337 112.265C582.204 112.288 582.071 112.299 581.941 112.299C580.467 112.312 578.975 110.865 578.625 108.791C578.574 108.492 578.549 108.196 578.549 107.907C578.549 106.969 578.808 106.113 579.242 105.472C579.678 104.829 580.276 104.404 580.978 104.284C581.112 104.261 581.243 104.251 581.374 104.251C582.847 104.237 584.339 105.685 584.691 107.759L585.02 107.703L585.349 107.647C584.954 105.337 583.29 103.596 581.374 103.583C581.206 103.583 581.037 103.597 580.866 103.625C579.961 103.78 579.205 104.332 578.689 105.099C578.171 105.865 577.882 106.848 577.881 107.907C577.881 108.233 577.909 108.567 577.966 108.903C578.361 111.212 580.025 112.953 581.941 112.967C582.109 112.967 582.279 112.953 582.449 112.924C583.355 112.771 584.11 112.217 584.626 111.452C585.144 110.685 585.434 109.703 585.434 108.643C585.434 108.317 585.406 107.984 585.349 107.647L585.02 107.703Z" fill="white"/>
  <path d="M575.93 109.629L575.813 109.557L575.92 109.646L575.93 109.629L575.813 109.557L575.92 109.646C575.926 109.64 576.213 109.279 577.496 109.275C577.7 109.275 577.93 109.284 578.186 109.307L578.244 108.642C577.97 108.618 577.721 108.607 577.496 108.607C575.894 108.599 575.425 109.166 575.362 109.279L575.93 109.629Z" fill="white"/>
  <path d="M585.152 108.605L593.165 107.324L593.06 106.665L585.047 107.945" fill="white"/>
  <path d="M593.702 117.166C599.221 119.279 600.943 105.698 595.703 105.095C591.73 104.639 591.567 110.183 591.567 110.183C591.567 110.183 590.551 115.958 593.702 117.166Z" fill="#F57787"/>
  <path d="M594.354 114.163C594.354 114.163 594.274 114.066 594.157 113.882C594.054 113.692 593.846 113.439 593.706 113.091C593.552 112.747 593.389 112.332 593.301 111.859C593.193 111.391 593.164 110.868 593.204 110.344C593.253 109.822 593.389 109.299 593.61 108.852C593.821 108.399 594.125 108.035 594.409 107.768C595.005 107.243 595.522 107.143 595.522 107.143C595.522 107.143 595.165 107.51 594.838 108.116C594.516 108.707 594.23 109.511 594.169 110.375C593.924 110.575 593.72 110.806 593.578 111.01C593.356 111.316 593.248 111.548 593.248 111.548L594.15 111.871C594.169 112.256 594.214 112.618 594.241 112.943C594.278 113.304 594.31 113.606 594.333 113.818C594.354 114.034 594.354 114.163 594.354 114.163Z" fill="#F36272"/>
  <path d="M594.159 111.873L594.151 111.87L593.248 111.548C593.248 111.548 593.356 111.316 593.579 111.009C593.72 110.805 593.924 110.574 594.169 110.374C594.297 110.27 594.436 110.174 594.583 110.093C595.008 109.85 595.473 109.74 595.816 109.714C595.917 109.705 596.008 109.702 596.085 109.702C596.272 109.702 596.384 109.721 596.384 109.721C596.384 109.721 596.157 109.745 595.849 109.862C595.54 109.972 595.159 110.189 594.871 110.482C594.576 110.769 594.387 111.125 594.292 111.402C594.189 111.678 594.159 111.873 594.159 111.873Z" fill="#F36272"/>
  <path d="M646.756 211.541L646.755 211.554C644.329 214.367 635.127 216.418 630.699 212.526C629.307 211.286 627.736 208.019 626.193 203.966C622.267 193.602 618.551 178.097 618.551 178.097L639.145 167.573C639.145 167.573 641.795 179.453 644.077 190.742C644.077 190.742 644.097 190.857 644.14 191.057C644.883 194.673 645.575 198.23 646.117 201.282L646.157 201.525C646.701 205.17 647.051 208.969 646.756 211.541Z" fill="#F57787"/>
  <path d="M610.773 163.674C612.763 171.943 619.013 187.615 619.013 187.615C623.392 188.342 629.263 187.535 634.128 185.787C639.744 183.77 643.756 179.534 643.756 179.534C643.756 179.534 639.611 167.883 635.889 159.511C632.549 151.996 630.544 149.191 629.099 147.702C626.923 145.422 623.412 142.808 620.921 141.62L610.773 163.674Z" fill="#D7DCF2"/>
  <path d="M636.815 169.074L624.73 163.86L615.207 139.324C615.207 139.324 616.952 139.854 619.251 140.782H619.262C619.306 140.804 619.406 140.837 619.571 140.904L619.747 140.981C621.802 141.942 629.767 146.637 635.28 163.694C635.324 163.838 635.368 163.981 635.412 164.125C635.998 166.092 636.428 167.672 636.66 168.489L636.727 168.732L636.815 169.074Z" fill="#D7DCF2"/>
  <path d="M646.756 211.541L646.754 211.554C646.577 213.062 646.161 214.146 645.416 214.53L643.488 215.689C640.97 217.229 636.404 219.848 630.722 222.29C616.946 228.241 596.933 235.144 586.144 238.308C586.144 238.308 585.078 235.26 583.417 232.085C583.417 232.085 593.176 227.553 602.769 220.205C612.376 212.873 626.193 203.966 626.193 203.966L629.682 199.861C629.682 199.861 642.085 188.446 644.077 190.742C644.077 190.742 644.097 190.857 644.14 191.057C644.436 192.248 645.42 196.628 646.117 201.282L646.157 201.525C646.701 205.17 647.05 208.969 646.756 211.541Z" fill="#F57787"/>
  <path d="M605.431 256.639H574.102V253.573H605.431C606.278 253.573 606.964 254.259 606.964 255.105C606.964 255.952 606.278 256.639 605.431 256.639Z" fill="#29608B"/>
  <path d="M588.479 256.639H510.035C509.095 256.639 508.271 256.012 508.021 255.107L491.965 197.311C491.61 196.032 492.571 194.765 493.899 194.765H569.757C571.523 194.765 573.074 195.944 573.548 197.648L589.545 255.236C589.741 255.941 589.21 256.639 588.479 256.639Z" fill="#29608B"/>
  <path d="M585.639 256.639H507.197C506.257 256.639 505.433 256.012 505.182 255.107L489.126 197.311C488.771 196.032 489.733 194.765 491.061 194.765H566.917C568.685 194.765 570.235 195.944 570.709 197.648L586.706 255.236C586.902 255.941 586.371 256.639 585.639 256.639Z" fill="#A7B9E4"/>
  <path d="M743.559 200.597V200H672.807C667.943 200.001 664 203.944 664 208.808V225.521C664.001 230.009 667.355 233.713 671.696 234.26C671.991 234.297 672.209 234.545 672.209 234.843V243.993C672.207 244.324 672.355 244.635 672.573 244.831C672.791 245.029 673.067 245.133 673.356 245.135C673.689 245.14 674.056 244.972 674.279 244.657L681.485 234.579C681.597 234.423 681.779 234.329 681.971 234.329H743.559C748.423 234.329 752.365 230.387 752.365 225.521V208.808C752.365 203.944 748.423 200.001 743.559 200V200.597V201.195C745.663 201.195 747.563 202.045 748.941 203.424C750.32 204.804 751.171 206.704 751.172 208.808V225.521C751.171 227.627 750.32 229.525 748.941 230.905C747.563 232.284 745.663 233.135 743.559 233.135H681.971C681.393 233.135 680.851 233.415 680.515 233.884L673.307 243.961L673.356 243.996V243.94L673.308 243.961L673.356 243.996V243.94V243.979L673.381 243.951L673.356 243.94V243.979L673.381 243.951L673.343 243.993H673.404L673.381 243.951L673.343 243.993H673.404V234.843C673.404 233.945 672.737 233.187 671.845 233.075C668.097 232.603 665.192 229.401 665.193 225.521V208.808C665.195 206.704 666.045 204.804 667.424 203.424C668.803 202.045 670.703 201.195 672.807 201.195H743.559V200.597Z" fill="white"/>
  <path d="M683.661 217.139H683.064C683.061 218.302 682.12 219.243 680.957 219.246C679.795 219.243 678.853 218.302 678.851 217.139C678.853 215.977 679.795 215.035 680.957 215.033C682.12 215.035 683.061 215.977 683.064 217.139H683.661H684.257C684.257 215.317 682.78 213.839 680.957 213.839C679.135 213.839 677.657 215.317 677.657 217.139C677.657 218.962 679.135 220.439 680.957 220.439C682.78 220.439 684.257 218.962 684.257 217.139H683.661Z" fill="white"/>
  <path d="M697.274 217.139H696.676C696.675 218.302 695.733 219.243 694.571 219.246C693.407 219.243 692.466 218.302 692.464 217.139C692.466 215.977 693.407 215.035 694.571 215.033C695.733 215.035 696.675 215.977 696.676 217.139H697.274H697.871C697.871 215.317 696.393 213.839 694.571 213.839C692.747 213.839 691.271 215.317 691.27 217.139C691.271 218.962 692.747 220.439 694.571 220.439C696.393 220.439 697.871 218.962 697.871 217.139H697.274Z" fill="white"/>
  <path d="M710.887 217.139H710.289C710.287 218.302 709.345 219.243 708.183 219.246C707.02 219.243 706.079 218.302 706.076 217.139C706.079 215.977 707.02 215.035 708.183 215.033C709.345 215.035 710.287 215.977 710.289 217.139H710.887H711.483C711.483 215.317 710.005 213.839 708.183 213.839C706.36 213.839 704.883 215.317 704.883 217.139C704.883 218.962 706.36 220.439 708.183 220.439C710.005 220.439 711.483 218.962 711.483 217.139H710.887Z" fill="white"/>
  <path d="M724.498 217.139H723.901C723.9 218.302 722.958 219.243 721.794 219.246C720.631 219.243 719.69 218.302 719.689 217.139C719.69 215.977 720.631 215.035 721.794 215.033C722.958 215.035 723.9 215.977 723.901 217.139H724.498H725.096C725.094 215.317 723.618 213.839 721.794 213.839C719.971 213.839 718.494 215.317 718.494 217.139C718.494 218.962 719.971 220.439 721.794 220.439C723.618 220.439 725.094 218.962 725.096 217.139H724.498Z" fill="white"/>
  <path d="M738.11 217.139H737.514C737.511 218.302 736.57 219.243 735.407 219.246C734.245 219.243 733.303 218.302 733.301 217.139C733.303 215.977 734.245 215.035 735.407 215.033C736.57 215.035 737.511 215.977 737.514 217.139H738.11H738.707C738.707 215.317 737.23 213.839 735.407 213.839C733.585 213.839 732.107 215.317 732.107 217.139C732.107 218.962 733.585 220.439 735.407 220.439C737.23 220.439 738.707 218.962 738.707 217.139H738.11Z" fill="white"/>
  <path d="M526.843 98.9141H499.604C498.475 98.9141 497.558 97.998 497.558 96.8674C497.558 95.738 498.475 94.8207 499.604 94.8207H526.843C527.974 94.8207 528.89 95.738 528.89 96.8674C528.89 97.998 527.974 98.9141 526.843 98.9141Z" fill="#EBF1FA"/>
  <path d="M554.093 98.9141H534.381C533.251 98.9141 532.334 97.998 532.334 96.8674C532.334 95.738 533.251 94.8207 534.381 94.8207H554.093C555.223 94.8207 556.141 95.738 556.141 96.8674C556.141 97.998 555.223 98.9141 554.093 98.9141Z" fill="#EBF1FA"/>
  <path d="M511.178 107.914H499.604C498.475 107.914 497.558 106.998 497.558 105.867C497.558 104.738 498.475 103.821 499.604 103.821H511.178C512.307 103.821 513.224 104.738 513.224 105.867C513.224 106.998 512.307 107.914 511.178 107.914Z" fill="#EBF1FA"/>
  <path d="M554.092 107.914H518.047C516.917 107.914 516 106.998 516 105.867C516 104.738 516.917 103.821 518.047 103.821H554.092C555.223 103.821 556.14 104.738 556.14 105.867C556.14 106.998 555.223 107.914 554.092 107.914Z" fill="#EBF1FA"/>
  <path d="M535.51 116.914H499.604C498.475 116.914 497.558 115.998 497.558 114.867C497.558 113.738 498.475 112.821 499.604 112.821H535.51C536.64 112.821 537.556 113.738 537.556 114.867C537.556 115.998 536.64 116.914 535.51 116.914Z" fill="#EBF1FA"/>
  <path d="M554.092 116.914H542.52C541.39 116.914 540.474 115.998 540.474 114.867C540.474 113.738 541.39 112.821 542.52 112.821H554.092C555.223 112.821 556.14 113.738 556.14 114.867C556.14 115.998 555.223 116.914 554.092 116.914Z" fill="#EBF1FA"/>
  <path d="M243.177 206.638C243.177 207.282 242.654 207.805 242.01 207.805C241.365 207.805 240.844 207.282 240.844 206.638C240.844 205.994 241.365 205.471 242.01 205.471C242.654 205.471 243.177 205.994 243.177 206.638Z" fill="white"/>
  <path d="M237.093 206.638C237.093 207.282 236.57 207.805 235.926 207.805C235.282 207.805 234.76 207.282 234.76 206.638C234.76 205.994 235.282 205.471 235.926 205.471C236.57 205.471 237.093 205.994 237.093 206.638Z" fill="white"/>
  <path d="M231.009 206.638C231.009 207.282 230.486 207.805 229.842 207.805C229.197 207.805 228.676 207.282 228.676 206.638C228.676 205.994 229.197 205.471 229.842 205.471C230.486 205.471 231.009 205.994 231.009 206.638Z" fill="white"/>
  <path d="M709.207 106.867H708.681C708.68 118.691 703.889 129.391 696.141 137.14C688.392 144.889 677.691 149.68 665.867 149.68C654.043 149.68 643.343 144.889 635.592 137.14C627.844 129.391 623.053 118.691 623.053 106.867C623.053 95.0414 627.844 84.3414 635.592 76.5921C643.343 68.8441 654.043 64.0521 665.867 64.0521C677.691 64.0521 688.392 68.8441 696.141 76.5921C703.889 84.3414 708.68 95.0414 708.681 106.867H709.207H709.733C709.733 82.6387 690.095 63.0001 665.867 63.0001C641.64 63.0001 622 82.6387 622 106.867C622 131.093 641.64 150.732 665.867 150.733C690.095 150.732 709.733 131.093 709.733 106.867H709.207Z" fill="#D7DCF2"/>
  <path d="M703.547 106.867C703.547 127.677 686.677 144.546 665.867 144.546C645.057 144.546 628.187 127.677 628.187 106.867C628.187 86.0566 645.057 69.1872 665.867 69.1872C686.677 69.1872 703.547 86.0566 703.547 106.867Z" fill="#D7DCF2"/>
  <path d="M669.297 106.867C669.297 108.76 667.761 110.296 665.867 110.296C663.973 110.296 662.438 108.76 662.438 106.867C662.438 104.972 663.973 103.436 665.867 103.436C667.761 103.436 669.297 104.972 669.297 106.867Z" fill="white"/>
  <path d="M665.493 106.192C664.975 106.48 664.323 106.292 664.035 105.775L652.953 85.7854C652.665 85.2681 652.853 84.6147 653.371 84.3281C653.889 84.0401 654.543 84.2281 654.829 84.7454L665.911 104.733C666.199 105.252 666.012 105.905 665.493 106.192Z" fill="white"/>
  <path d="M666.412 107.411C666.83 106.992 667.509 106.992 667.929 107.411L677.516 116.999C677.934 117.418 677.934 118.096 677.516 118.515C677.097 118.935 676.417 118.935 675.998 118.515L666.412 108.928C665.993 108.51 665.993 107.831 666.412 107.411Z" fill="white"/>
  <path d="M667.43 76.7067V72.3734C667.43 71.6374 666.833 71.04 666.097 71.04C665.361 71.04 664.764 71.6374 664.764 72.3734V76.7067C664.764 77.4427 665.361 78.04 666.097 78.04C666.833 78.04 667.43 77.4427 667.43 76.7067Z" fill="white"/>
  <path d="M696.027 108.431H700.36C701.096 108.431 701.693 107.833 701.693 107.097C701.693 106.36 701.096 105.764 700.36 105.764H696.027C695.289 105.764 694.693 106.36 694.693 107.097C694.693 107.833 695.289 108.431 696.027 108.431Z" fill="white"/>
  <path d="M664.303 137.026V141.359C664.303 142.096 664.9 142.692 665.636 142.692C666.372 142.692 666.969 142.096 666.969 141.359V137.026C666.969 136.29 666.372 135.692 665.636 135.692C664.9 135.692 664.303 136.29 664.303 137.026Z" fill="white"/>
  <path d="M635.708 105.303H631.374C630.637 105.303 630.041 105.899 630.041 106.636C630.041 107.372 630.637 107.97 631.374 107.97H635.708C636.444 107.97 637.041 107.372 637.041 106.636C637.041 105.899 636.444 105.303 635.708 105.303Z" fill="white"/>
  <path d="M650.988 81.2988C650.757 81.2988 650.533 81.1788 650.409 80.9655L648.243 77.2122C648.059 76.8935 648.168 76.4855 648.487 76.3015C648.592 76.2415 648.707 76.2122 648.82 76.2122C649.051 76.2122 649.275 76.3322 649.397 76.5455L651.564 80.2988C651.748 80.6175 651.639 81.0255 651.32 81.2095C651.215 81.2695 651.1 81.2988 650.988 81.2988Z" fill="#A7B9E4"/>
  <path d="M692.101 92.6533C691.871 92.6533 691.647 92.5333 691.524 92.32C691.34 92 691.449 91.5933 691.768 91.4093L695.52 89.2426C695.625 89.1813 695.74 89.1533 695.853 89.1533C696.084 89.1533 696.308 89.272 696.431 89.4867C696.615 89.8053 696.507 90.2133 696.188 90.3973L692.435 92.564C692.329 92.624 692.215 92.6533 692.101 92.6533Z" fill="#A7B9E4"/>
  <path d="M682.915 137.521C682.684 137.521 682.46 137.401 682.336 137.187L680.169 133.434C679.985 133.115 680.095 132.707 680.413 132.523C680.519 132.463 680.633 132.434 680.747 132.434C680.976 132.434 681.2 132.554 681.324 132.767L683.491 136.521C683.675 136.839 683.565 137.247 683.247 137.431C683.141 137.491 683.027 137.521 682.915 137.521Z" fill="#A7B9E4"/>
  <path d="M635.88 124.58C635.65 124.58 635.425 124.46 635.302 124.247C635.118 123.927 635.228 123.52 635.546 123.336L639.298 121.169C639.404 121.108 639.518 121.08 639.632 121.08C639.862 121.08 640.086 121.199 640.209 121.413C640.393 121.732 640.285 122.139 639.965 122.324L636.213 124.491C636.108 124.551 635.993 124.58 635.88 124.58Z" fill="#A7B9E4"/>
  <path d="M639.862 92.2539C639.749 92.2539 639.634 92.2246 639.529 92.1646L635.777 89.9979C635.458 89.8139 635.349 89.4059 635.533 89.0872C635.657 88.8739 635.881 88.7539 636.11 88.7539C636.223 88.7539 636.338 88.7832 636.443 88.8432L640.195 91.0099C640.515 91.1939 640.625 91.6019 640.439 91.9206C640.317 92.1339 640.093 92.2539 639.862 92.2539Z" fill="#A7B9E4"/>
  <path d="M681.146 81.5293C681.034 81.5293 680.919 81.5 680.814 81.44C680.495 81.256 680.386 80.848 680.57 80.5293L682.736 76.776C682.859 76.5626 683.083 76.4426 683.314 76.4426C683.427 76.4426 683.542 76.472 683.647 76.532C683.966 76.716 684.075 77.124 683.891 77.4426L681.725 81.196C681.601 81.4093 681.377 81.5293 681.146 81.5293Z" fill="#A7B9E4"/>
  <path d="M695.623 124.979C695.509 124.979 695.395 124.952 695.289 124.89L691.537 122.724C691.219 122.54 691.109 122.131 691.293 121.813C691.416 121.599 691.64 121.479 691.871 121.479C691.984 121.479 692.099 121.509 692.204 121.569L695.956 123.735C696.276 123.919 696.384 124.327 696.2 124.646C696.077 124.861 695.853 124.979 695.623 124.979Z" fill="#A7B9E4"/>
  <path d="M648.421 137.29C648.307 137.29 648.193 137.261 648.087 137.201C647.769 137.017 647.659 136.609 647.843 136.29L650.01 132.537C650.134 132.323 650.358 132.203 650.589 132.203C650.702 132.203 650.817 132.233 650.921 132.293C651.241 132.477 651.35 132.885 651.165 133.203L648.998 136.957C648.875 137.17 648.651 137.29 648.421 137.29Z" fill="#A7B9E4"/>
  <path d="M724.533 314.437H696.514C692.365 314.437 689.002 311.074 689.002 306.925V278.906C689.002 274.758 692.365 271.395 696.514 271.395H724.533C728.681 271.395 732.043 274.758 732.043 278.906V306.925C732.043 311.074 728.681 314.437 724.533 314.437Z" fill="#28418F"/>
  <path d="M722.69 310.709H691.685C688.361 310.709 685.666 308.014 685.666 304.69V273.685C685.666 270.361 688.361 267.666 691.685 267.666H722.69C726.014 267.666 728.707 270.361 728.707 273.685V304.69C728.707 308.014 726.014 310.709 722.69 310.709Z" fill="#6D7AC5"/>
  <path d="M722.691 310.709V310.043H691.685C690.205 310.041 688.872 309.444 687.901 308.475C686.932 307.504 686.333 306.171 686.333 304.691V273.685C686.333 272.205 686.932 270.872 687.901 269.901C688.872 268.932 690.205 268.335 691.685 268.333H722.691C724.171 268.335 725.504 268.932 726.475 269.901C727.444 270.872 728.041 272.205 728.041 273.685V304.691C728.041 306.171 727.444 307.504 726.475 308.475C725.504 309.444 724.171 310.041 722.691 310.043V310.709V311.376C726.383 311.375 729.375 308.383 729.375 304.691V273.685C729.375 269.993 726.383 267.001 722.691 267H691.685C687.993 267.001 685 269.993 685 273.685V304.691C685 308.383 687.993 311.375 691.685 311.376H722.691V310.709Z" fill="#D7DCF2"/>
  <path d="M698.493 302.041C698.371 302.041 698.25 302.026 698.13 301.99C697.419 301.792 697.009 301.054 697.209 300.346L703.718 277.305C703.917 276.593 704.658 276.18 705.362 276.384C706.073 276.584 706.483 277.32 706.283 278.029L699.774 301.07C699.609 301.658 699.074 302.041 698.493 302.041Z" fill="white"/>
  <path d="M709.376 302.041C709.254 302.041 709.133 302.026 709.013 301.99C708.302 301.792 707.892 301.054 708.092 300.346L714.602 277.305C714.801 276.593 715.542 276.18 716.246 276.384C716.957 276.584 717.368 277.32 717.168 278.029L710.657 301.07C710.492 301.658 709.957 302.041 709.376 302.041Z" fill="white"/>
  <path d="M718.709 285.3H695.667C694.93 285.3 694.334 284.702 694.334 283.966C694.334 283.229 694.93 282.633 695.667 282.633H718.709C719.446 282.633 720.042 283.229 720.042 283.966C720.042 284.702 719.446 285.3 718.709 285.3Z" fill="white"/>
  <path d="M718.709 295.825H695.667C694.93 295.825 694.334 295.229 694.334 294.492C694.334 293.756 694.93 293.159 695.667 293.159H718.709C719.446 293.159 720.042 293.756 720.042 294.492C720.042 295.229 719.446 295.825 718.709 295.825Z" fill="white"/>
  <path d="M159.534 363.429C157.364 363.429 155.332 364.025 153.593 365.06C152.896 358.839 147.62 354.002 141.212 354.002C134.329 354.002 128.749 359.582 128.749 366.465C128.749 366.926 128.776 367.381 128.825 367.829C128.253 367.722 127.664 367.663 127.061 367.663C121.806 367.663 117.545 371.925 117.545 377.179C117.545 382.435 121.806 386.695 127.061 386.695H159.534C165.96 386.695 171.169 381.488 171.169 375.062C171.169 368.637 165.96 363.429 159.534 363.429Z" fill="white"/>
  <path d="M76.9472 313.46C76.6325 311.72 76.6752 309.94 77.1138 308.227C78.5818 302.491 80.2618 291.7 76.5285 280.043C70.3005 260.596 45.0581 243.372 45.0581 243.372C45.0581 243.372 51.9096 272.071 57.5429 284.29C61.6669 293.236 68.8818 303.416 72.8845 308.778C73.9952 310.264 74.7565 311.979 75.0872 313.806C79.1685 336.388 78.5778 353.87 78.5672 354.14L80.4618 354.215C80.4725 353.941 81.0725 336.282 76.9472 313.46Z" fill="#D7DCF2"/>
  <path d="M97.0737 295.176C102.087 279.323 104.419 260.648 104.419 260.648C104.419 260.648 81.7871 279.323 79.9324 293.772C78.7951 302.623 80.2084 309.722 81.4751 313.899C82.0124 315.674 82.2071 317.527 82.0084 319.371C79.7177 340.635 81.5124 356.933 81.5417 357.182L83.2444 356.986C83.2178 356.746 81.5511 341.582 83.5138 321.488C83.7818 318.738 84.8898 316.136 86.6311 313.988C89.8711 309.992 94.5017 303.307 97.0737 295.176Z" fill="#A7B9E4"/>
  <path d="M120.082 259.911C120.082 259.911 95.6923 268.962 89.315 288.875C85.4337 300.994 87.267 312.198 88.7843 317.999C89.211 319.629 89.187 321.329 88.7803 322.961C83.067 345.877 82.979 369.598 82.979 369.914H84.9203C84.9203 369.603 85.0097 346.448 90.527 323.974C91.075 321.742 92.0483 319.643 93.419 317.798C97.5777 312.195 104.656 302.115 108.756 293.223C114.524 280.711 120.082 259.911 120.082 259.911Z" fill="#D7DCF2"/>
  <path d="M77.0482 343.933C76.4416 335.596 74.1696 328.091 71.4162 321.795C70.8656 320.535 70.6709 319.155 70.8482 317.791C71.1882 315.161 71.3296 311.078 70.2776 305.889C68.2989 296.118 55.3313 275.01 36.5552 273.774C36.5552 273.774 43.0333 284.189 46.3666 292.902C50.5849 303.927 56.6046 315.461 66.588 319.886C68.3442 320.665 69.7189 322.122 70.4509 323.897C72.8576 329.73 74.7896 336.545 75.3362 344.057L77.0482 343.933Z" fill="#A7B9E4"/>
  <path d="M64.3538 386.69H95.3377L103.378 337.564C103.732 335.389 102.055 333.414 99.8511 333.414H59.8403C57.6371 333.414 55.9591 335.389 56.3148 337.564L64.3538 386.69Z" fill="#D7DCF2"/>
  <path d="M0.694896 387H811.306C811.688 387 812 386.777 812 386.5C812 386.224 811.688 386 811.306 386H0.694896C0.31117 386 0 386.224 0 386.5C0 386.777 0.31117 387 0.694896 387Z" fill="white"/>
  <path d="M298.693 219.375L307.78 210.059C307.78 210.059 308.095 205.904 308.589 205.028C309.085 204.152 310.363 200.907 310.999 200.554C311.636 200.199 312.909 200.554 312.909 200.554C312.909 200.554 314.172 200.13 314.737 200.13C315.304 200.13 316.363 200.646 316.363 200.646C316.363 200.646 317.721 200.554 318.288 200.554C318.853 200.554 319.035 200.712 319.035 200.712C319.035 200.712 321.225 198.192 322.287 197.343C323.348 196.495 324.971 194.931 325.452 194.938C325.905 194.943 326.105 195.74 325.775 196.59C325.445 197.439 324.008 198.808 324.008 198.808L319.868 205.082C319.868 205.082 320.575 204.799 320.952 204.563C321.331 204.327 323.855 201.968 324.008 201.874C324.16 201.78 325.292 201.026 325.953 201.78C326.613 202.535 321.619 208.518 320.816 209.32C320.015 210.122 315.423 212.447 315.423 212.447C315.423 212.447 310.575 221.168 310.103 221.734C309.631 222.3 298.693 219.375 298.693 219.375Z" fill="#F57789"/>
  <path d="M307.246 176.372C307.246 176.372 302.17 205.775 297.393 206.456C297.393 206.456 278.319 207.227 274.071 184.088C270.386 164.023 285.166 159.744 292.078 161.279C298.991 162.813 308.73 163.812 307.246 176.372Z" fill="#F57789"/>
  <path d="M290.388 201.754C290.388 201.754 287.716 205.356 286.78 214.08C286.78 214.08 278.838 215.216 271.514 211.445C271.514 211.445 275.46 199.138 275.944 185.778" fill="#F57789"/>
  <path d="M285.01 156.356C274.587 158.659 275.42 165.152 275.42 165.152C270.542 166.36 269.492 168.373 269.532 177.381C269.572 186.388 272.832 197.204 274.63 198.084C276.426 198.964 286.616 199.007 287.467 198.697C288.318 198.389 291.883 190.125 291.052 188.672C290.22 187.219 291.094 181.501 293.467 181.285C295.84 181.068 295.375 184.747 295.375 184.747L297.327 184.319L298.832 180.625C312.606 181.445 316.164 165.749 316.164 165.749C312.855 163.592 295.434 154.053 285.01 156.356Z" fill="#192C4A"/>
  <path d="M169.311 355.401L179.85 356.924L176.359 369.23L164.946 366.352C164.946 366.352 160.302 360.057 167.312 355.401C167.651 355.176 168.759 355.276 169.311 355.401Z" fill="#F57787"/>
  <path d="M247.97 323.793L232.436 276.761C232.436 276.761 227.728 275.084 225.318 276.761C225.318 276.761 209.136 285.462 210.862 310.273C212.163 328.977 216.112 349.263 217.712 357.397L176.271 355.866C176.271 355.866 171.158 361.942 174.466 369.853C174.466 369.853 226.54 383.858 233.875 385.152C239.836 386.204 246.362 387.016 249.512 384.316C255.063 379.561 247.97 323.793 247.97 323.793Z" fill="#040606"/>
  <path d="M218.379 355.401L228.918 356.924L225.427 369.23L214.014 366.352C214.014 366.352 209.37 360.057 216.382 355.401C216.719 355.176 217.827 355.276 218.379 355.401Z" fill="#F57787"/>
  <path d="M214.555 361.853C214.319 364.276 216.439 366.457 216.051 367.061C215.663 367.665 208.579 379.551 208.579 379.551C208.579 379.551 213.927 381.88 213.065 385.244H199.521C199.521 385.244 195.983 382.052 196.07 377.48C196.07 377.48 196.99 372.219 199.406 367.56C201.822 362.901 207.313 352.384 207.313 352.384C207.313 352.384 208.979 351.711 211.827 352.471C215.163 353.36 218.379 355.401 218.379 355.401C218.379 355.401 215.138 355.867 214.555 361.853Z" fill="#4075C4"/>
  <path d="M323.05 374.436C319.706 361.959 288.243 308.691 277.599 294.308C255.738 284.816 232.436 276.761 232.436 276.761C222.8 279.063 218.054 298.48 223.519 311.424C227.268 320.305 251.055 342.656 265.622 355.815L225.2 355.767C225.2 355.767 220.438 362.884 224.754 369.644C224.754 369.644 291.982 384.931 297.879 385.793C303.776 386.656 317.008 385.793 317.008 385.793C317.008 385.793 325.864 384.94 323.05 374.436Z" fill="#192C4A"/>
  <path d="M165.487 361.853C165.251 364.276 167.371 366.457 166.983 367.061C166.595 367.665 159.511 379.551 159.511 379.551C159.511 379.551 164.859 381.88 163.996 385.244H150.452C150.452 385.244 146.915 382.052 147.002 377.48C147.002 377.48 147.922 372.219 150.338 367.56C152.752 362.901 158.244 352.384 158.244 352.384C158.244 352.384 159.911 351.711 162.759 352.471C166.095 353.36 169.311 355.401 169.311 355.401C169.311 355.401 166.068 355.867 165.487 361.853Z" fill="#4075C4"/>
  <path d="M373.663 210.321L351.982 248.458L336.454 232.981L323.602 252.112L327.334 253.904L325.991 255.021C325.991 255.021 355.956 269.614 359.547 266.396C363.138 263.176 379.868 214.657 379.868 214.657L373.663 210.321Z" fill="#F57789"/>
  <path d="M339.222 235.403C339.222 235.403 335.129 252.67 326.942 260.856L305.996 252.883C305.996 252.883 296.276 269.23 286.769 281.763C283.116 286.603 281.902 293.416 277.609 294.31C277.342 294.216 277.089 294.136 276.822 294.07C265.182 290.576 248.009 294.283 233.836 289.016C218.182 283.19 221.222 279.91 221.222 279.91C221.222 279.91 230.716 262.803 236.102 244.683C238.502 236.67 240.169 229.243 241.276 223.443C243.262 213.176 251.489 205.15 261.862 203.75C261.982 203.736 262.089 203.71 262.209 203.696C274.076 202.19 305.142 205.856 311.182 208.443C317.222 211.03 339.222 235.403 339.222 235.403Z" fill="#4075C4"/>
  <path d="M305.995 252.883C305.995 252.883 296.275 269.23 286.768 281.763C283.115 286.603 281.902 293.416 277.608 294.31C279.488 293.643 282.608 283.75 283.715 281.523C284.835 279.31 286.608 277.083 290.448 269.31C294.275 261.523 299.47 250.111 299.47 250.111L305.995 252.883Z" fill="#4E8ED2"/>
  <path d="M265.621 355.815C265.621 355.815 265.95 355.742 266.532 355.667C267.113 355.607 267.946 355.486 268.949 355.447C270.953 355.338 273.634 355.418 276.288 355.786C277.612 355.976 278.932 356.211 280.15 356.517C281.372 356.805 282.497 357.147 283.441 357.493C284.392 357.817 285.154 358.178 285.688 358.416C286.221 358.66 286.517 358.817 286.517 358.817C286.517 358.817 286.181 358.779 285.606 358.68C285.037 358.559 284.212 358.448 283.236 358.281C281.282 357.955 278.694 357.539 276.094 357.191C274.797 356.99 273.492 356.85 272.27 356.678C271.044 356.524 269.9 356.38 268.918 356.258C266.94 355.992 265.621 355.815 265.621 355.815Z" fill="#040606"/>
  <path d="M389.867 196.284C389.516 196.248 387.295 198.032 386.222 198.913L387.458 196.546C387.458 196.546 389.092 194.968 389.68 194.101C390.27 193.234 389.959 192.368 389.495 192.321C389.168 192.288 387.212 193.84 386.08 194.762L386.33 194.286C386.33 194.286 387.964 192.708 388.552 191.841C389.14 190.974 388.831 190.108 388.367 190.061C387.902 190.014 384.142 193.172 384.142 193.172L382.31 195.624L383.691 192.942C383.691 192.942 384.418 192.053 384.903 191.084C385.387 190.114 385.038 189.817 384.768 189.494C384.499 189.172 381.967 191.057 381.32 191.81C380.674 192.565 378.627 195.622 378.466 196.053L376.35 200.43C376.215 199.162 376.002 196.992 375.852 195.609C375.636 193.616 373.832 193.144 373.77 194.113C373.707 195.084 372.702 199.85 372.93 202.437C373.156 205.022 373.59 206.718 373.751 208.173C373.914 209.628 372.404 212.534 372.404 212.534C372.404 212.534 378.438 216.281 379.436 215.16C380.434 214.037 382.556 211.548 383.583 209.87C384.992 207.566 385.944 204.537 385.944 204.537L387.83 200.509C387.83 200.509 389.464 198.93 390.052 198.064C390.64 197.196 390.331 196.329 389.867 196.284Z" fill="#F57789"/>
</svg>
