<svg width="800" height="766" viewBox="0 0 800 766" fill="none" xmlns="http://www.w3.org/2000/svg">
<path d="M800 322.42C800 279.267 764.892 244.159 721.739 244.159H532.998L560.475 169.2C560.564 168.958 560.648 168.717 560.73 168.473C573.972 128.752 570.639 87.0734 551.089 47.9344C536.337 18.4297 506.687 0.101562 473.711 0.101562H464.542C442.336 0.101562 423.553 17.45 421.777 39.5922C418.673 78.3125 402.066 114.988 375.014 142.875L223.861 296.334H208.695V270.247C208.695 255.841 197.016 244.159 182.608 244.159H26.0875C11.6797 244.159 0 255.841 0 270.247V739.812C0 754.219 11.6797 765.9 26.0875 765.9H182.609C197.016 765.9 208.697 754.22 208.697 739.812V713.725H643.48C686.633 713.725 721.741 678.617 721.741 635.464C721.741 621.52 718.078 608.419 711.659 597.069C733.395 583.148 747.828 558.787 747.828 531.116C747.828 517.172 744.166 504.07 737.747 492.72C759.483 478.8 773.916 454.439 773.916 426.767C773.916 412.823 770.253 399.722 763.834 388.372C785.567 374.455 800 350.092 800 322.42ZM156.522 322.42V687.637V713.725H52.1734V296.334H156.522V322.42ZM721.739 348.508H695.652H643.478C629.072 348.508 617.391 360.187 617.391 374.595C617.391 389.003 629.07 400.683 643.478 400.683H695.652C710.036 400.683 721.739 412.386 721.739 426.77C721.739 441.155 710.036 452.858 695.652 452.858H669.564H617.391C602.984 452.858 591.303 464.537 591.303 478.945C591.303 493.353 602.983 505.033 617.391 505.033H669.564C683.948 505.033 695.652 516.736 695.652 531.12C695.652 545.505 683.948 557.208 669.564 557.208H643.477C642.109 557.208 640.778 557.345 639.466 557.547H589.57C575.164 557.547 563.483 569.227 563.483 583.634C563.483 598.041 575.163 609.722 589.57 609.722H641.744C642.914 609.722 644.056 609.617 645.186 609.469C658.773 610.356 669.564 621.662 669.564 635.469C669.564 649.853 657.861 661.556 643.477 661.556H208.695V348.506H234.783C241.77 348.506 248.464 345.703 253.369 340.725L412.255 179.414C412.298 179.37 412.342 179.325 412.383 179.281C445.912 144.753 467.22 99.9313 472.933 52.2719H473.711C486.797 52.2719 498.567 59.55 504.419 71.2563C517.783 98.0078 520.111 125.044 511.345 151.625L471.158 261.267C468.223 269.269 469.386 278.198 474.266 285.184C479.145 292.17 487.128 296.333 495.652 296.333H721.739C736.123 296.333 747.827 308.036 747.827 322.42C747.827 336.805 736.123 348.508 721.739 348.508Z" fill="#6c757d"/>
</svg>
