<svg width="980" height="738" viewBox="0 0 980 738" fill="none" xmlns="http://www.w3.org/2000/svg">
    <path d="M472.69 1.68051C458.36 6.93051 40.0801 214.55 31.6101 220.61C7.19009 238.37 -5.31991 273.88 2.15009 303.34C5.78009 317.67 139.76 589.46 148.04 599.35C164.38 618.92 190.81 630.22 215.64 628.61C223.31 628 230.17 627.2 230.57 626.59C230.97 626.19 229.16 621.14 226.53 615.49C215.43 592.69 215.43 592.08 215.43 425.82C215.43 323.12 216.24 268.43 217.65 261.37C218.86 255.52 223.7 242.4 228.55 232.31C243.28 201.64 269.51 178.841 303.01 167.541L319.35 161.891L473.1 161.291L627.05 160.68L594.97 96.5205C558.85 24.6905 554.21 18.0305 530.2 6.73051C518.9 1.48051 514.46 0.470496 497.92 0.0704965C487.42 -0.129504 476.12 0.470506 472.69 1.68051Z" fill="#6c757d"/>
    <path d="M316.32 210.32C292.91 217.58 272.74 236.35 263.66 259.15L258.82 270.85L258.22 429.25C257.82 534.38 258.42 590.87 259.83 597.53C266.49 628.81 292.32 654.43 323.99 661.09C331.46 662.7 390.78 663.31 518.1 663.31H701.72V638.09V612.87L516.69 612.47C335.7 611.87 331.26 611.87 324.6 607.83C320.77 605.61 315.92 601.17 313.5 598.15C309.26 592.5 309.26 591.09 309.26 484.15V375.78H574.6H839.94L840.54 386.27L841.15 396.96H862.34H883.53L882.9 332.8C882.3 271.26 882.09 268.43 877.65 257.13C870.99 240.79 854.24 223.23 837.09 214.76L823.77 208.3L574.58 207.9C365.55 207.7 323.98 207.9 316.32 210.32ZM823.99 260.97C832.87 265.21 838.32 274.29 840.13 287.6L841.54 298.09H574.79H308.24V289.41C308.24 278.72 313.69 268.22 322.36 262.17L329.02 257.73H572.97C792.91 257.74 817.73 258.14 823.99 260.97Z" fill="#6c757d"/>
    <path d="M823.78 438.13C801.18 445.39 785.24 459.11 775.55 479.7C769.3 492.82 769.3 492.82 768.69 532.57C768.08 571.72 767.88 572.12 763.44 573.33C756.38 575.14 748.31 582.21 744.07 590.88C740.24 597.94 740.03 602.78 740.03 654.84C740.03 709.92 740.23 711.34 744.67 720.01C747.7 725.46 752.34 730.5 757.38 733.33C765.25 737.97 765.65 737.97 859.68 737.97C962.99 737.97 960.37 738.37 970.86 725.86C979.74 715.17 980.54 708.71 979.74 649.99C979.13 595.51 979.13 595.31 974.09 588.04C971.26 584 965.21 578.56 960.57 576.13L952.3 571.69L951.49 532.14L950.89 492.79L944.43 479.47C936.56 463.33 922.03 449.2 905.89 441.74C895.2 436.7 892.37 436.29 863.11 435.89C841.54 435.5 829.23 436.31 823.78 438.13ZM890.37 477.47C900.66 482.11 908.73 491.59 911.56 501.88C912.77 506.32 913.38 523.07 913.17 539.61L912.57 569.47H860.1H807.64L807.03 539.61C806.43 506.72 808.04 497.24 816.11 487.55C825.39 476.65 834.87 473.63 860.1 473.63C877.25 473.64 884.12 474.65 890.37 477.47ZM873.42 628.81C881.09 636.68 881.49 648.18 874.23 656.85C869.79 662.1 869.19 664.72 869.19 678.04C869.19 691.36 868.58 693.78 864.95 696.4C862.53 698.01 859.1 698.82 857.28 698.22C850.82 696 849.01 690.96 849.01 676.02C849.01 663.91 848.2 660.08 844.57 655.04C837.91 645.96 838.52 635.87 846.59 628.81C855.46 620.74 865.35 620.94 873.42 628.81Z" fill="#6c757d"/>
    <path d="M381.29 475.86C349.21 482.11 331.25 519.04 345.37 549.31C354.05 568.07 371.2 578.97 391.98 578.97C405.1 578.97 415.39 575.54 426.08 567.47L432.94 562.22L442.22 569.28C452.51 577.15 459.98 579.37 474.91 578.96C502.75 578.56 524.75 555.76 524.55 527.31C524.55 512.38 520.92 503.1 510.63 491.8C501.15 481.11 488.84 475.46 475.12 475.25C459.99 474.85 452.52 477.07 442.23 484.94L433.35 491.8L423.26 484.94C414.99 479.29 397.03 473.03 391.38 473.84C390.57 474.04 386.13 474.85 381.29 475.86Z" fill="#6c757d"/>
</svg>
