<svg width="801" height="792" viewBox="0 0 801 792" fill="none" xmlns="http://www.w3.org/2000/svg">
    <path d="M473.419 0.418945C389.642 0.418945 313.127 32.044 255.14 83.9635C268.001 104.415 275.308 128.21 275.995 152.772L275.998 152.843L276.001 152.915C276.293 163.982 276.954 175.052 277.901 186.105C321.884 125.669 393.119 86.2789 473.419 86.2789C606.705 86.2789 715.14 194.714 715.14 328C715.14 459.881 608.966 567.361 477.611 569.616C489.606 579.639 501.99 589.192 514.749 598.162L514.806 598.204L514.866 598.245C532.238 610.5 546.388 626.567 556.316 644.944C696.935 608.136 800.997 479.998 800.997 328C801 147.371 654.051 0.418945 473.419 0.418945Z" fill="#6c757d"/>
    <path d="M465.376 668.404C427.953 638.53 404.605 618.636 371.191 587.684C361.36 578.577 349.345 572.904 337.007 572.904C327.565 572.904 318.241 575.912 310.565 582.212C302.643 588.88 294.721 595.549 286.796 602.214C222.404 525.69 174.589 436.519 146.481 340.539C156.418 337.631 166.358 334.72 176.295 331.813C198.195 325.107 208.498 301.727 205.284 278.29C198.292 227.278 194.494 201.935 190.167 155.173C187.949 131.204 171.996 110.383 149.131 109.138C145.565 108.791 142.002 108.62 138.468 108.62C53.4376 108.62 -20.5966 207.175 6.78985 327.746C40.8677 477.062 114.641 614.641 220.155 725.652C263.377 771.032 316.326 791.581 364.148 791.581C414.596 791.581 459.34 768.731 481.011 728.059C492.628 708.326 484.191 683.423 465.376 668.404Z" fill="#6c757d"/>
    <path d="M374.906 334.062C352.261 355.072 337.445 371.592 329.62 384.556C324.097 393.701 320.067 403.368 317.637 413.291C316.495 417.962 317.545 422.81 320.519 426.596C323.49 430.377 327.949 432.546 332.757 432.546H440.82C454.06 432.546 464.832 421.774 464.832 408.534C464.832 395.295 454.06 384.522 440.82 384.522H392.02C392.418 384.053 392.827 383.583 393.245 383.111C396.434 379.522 404.241 372.024 416.448 360.83C429.249 349.082 437.892 340.284 442.869 333.933C450.371 324.386 455.952 315.064 459.452 306.232C463.021 297.231 464.832 287.635 464.832 277.707C464.832 259.894 458.382 244.774 445.66 232.759C433.021 220.842 415.623 214.803 393.941 214.803C374.239 214.803 357.505 219.96 344.208 230.132C336.186 236.273 330.009 244.782 325.848 255.429C323.038 262.621 323.765 270.849 327.794 277.435C331.824 284.023 338.819 288.416 346.503 289.183C347.359 289.269 348.212 289.312 349.053 289.312C359.869 289.312 369.514 282.435 373.057 272.2C374.167 268.992 375.635 266.442 377.427 264.616C381.199 260.772 386.279 258.9 392.962 258.9C399.753 258.9 404.828 260.669 408.468 264.307C412.1 267.939 413.866 273.236 413.866 280.506C413.866 287.257 411.453 294.298 406.697 301.438C404.147 305.176 396.525 313.919 374.906 334.062Z" fill="#6c757d"/>
    <path d="M591.244 214.803H573.194C568.051 214.803 563.248 217.338 560.346 221.586L476.867 343.787C474.432 347.353 473.144 351.523 473.144 355.842V375.644C473.144 384.222 480.124 391.202 488.702 391.202H557.232V407.764C557.232 421.43 568.351 432.549 582.017 432.549C595.683 432.549 606.802 421.43 606.802 407.764V391.202H609.278C621.977 391.202 632.308 380.87 632.308 368.172C632.308 355.473 621.977 345.141 609.278 345.141H606.802V230.361C606.802 221.783 599.822 214.803 591.244 214.803ZM557.235 345.141H526.475L557.235 299.412V345.141Z" fill="#6c757d"/>
</svg>
