<svg viewBox="0 0 1313 734" fill="none" xmlns="http://www.w3.org/2000/svg">
    <path d="M247.001 303.823H470V485.622C470 496.422 461.248 505.178 450.465 505.178H428.129V560.545C428.129 574.605 416.919 586 403.082 586C389.209 586 378.015 574.605 378.015 560.545V505.178H339.004V560.545C339.004 574.605 327.772 586 313.936 586C300.101 586 288.87 574.605 288.87 560.545V505.178H266.554C255.769 505.178 247 496.422 247 485.622L247.001 303.823ZM203.301 302.339C189.323 302.339 178 313.843 178 328.044V428.505C178 442.69 189.323 454.213 203.301 454.213C217.282 454.213 228.602 442.69 228.602 428.505V328.044C228.602 313.843 217.282 302.339 203.301 302.339ZM470.001 285.503H247.001C249.753 253.72 270.362 226.369 300.029 210.533L278.827 179.387C275.967 175.187 277.046 169.456 281.253 166.596C285.454 163.736 291.171 164.824 294.044 169.021L317.153 202.991C329.965 198.558 343.873 196.013 358.5 196.013C373.145 196.013 387.053 198.558 399.865 202.997L422.974 169.033C425.812 164.825 431.546 163.737 435.748 166.597C439.955 169.457 441.033 175.188 438.174 179.388L416.989 210.533C446.656 226.36 467.25 253.711 470.001 285.503ZM323.801 242.317C323.801 235.501 318.285 229.973 311.474 229.973C304.646 229.973 299.13 235.501 299.13 242.317C299.13 249.129 304.665 254.655 311.474 254.655C318.284 254.655 323.801 249.129 323.801 242.317ZM419.434 242.317C419.434 235.501 413.899 229.973 407.09 229.973C400.262 229.973 394.762 235.501 394.762 242.317C394.762 249.129 400.262 254.655 407.09 254.655C413.899 254.655 419.434 249.129 419.434 242.317ZM513.717 302.304C499.754 302.304 488.399 313.825 488.399 328.027V428.523C488.399 442.725 499.754 454.249 513.717 454.249C527.699 454.249 539 442.726 539 428.523V328.027C539.001 313.825 527.699 302.304 513.717 302.304Z" fill="#6C757D"/>
    <circle cx="358.5" cy="375.5" r="335" stroke="#6C757D" stroke-width="47"/>
    <circle cx="954.5" cy="358.5" r="335" stroke="#6C757D" stroke-width="47"/>
    <path d="M948.5 249.317C944.01 224.84 955.584 199.65 969.522 182.674C984.883 163.943 1011.24 149.579 1033.77 148C1037.58 173.663 1027.1 198.667 1013.32 216.353C998.53 235.353 973.104 250.087 948.5 249.317ZM1080.64 338.011C1087.61 318.563 1101.42 301.064 1122.85 289.258C1101.2 262.242 1070.8 246.557 1042.11 246.557C1004.16 246.557 988.116 264.638 961.755 264.638C934.6 264.638 913.999 246.557 881.126 246.557C848.89 246.557 814.576 266.205 792.815 299.76C784.813 312.164 779.393 327.573 776.437 344.736C768.234 392.882 780.487 455.594 817.037 511.277C834.808 538.297 858.495 568.732 889.44 568.997C917.006 569.266 924.826 551.373 962.143 551.188C999.516 550.976 1006.6 569.182 1034.13 568.92C1065.08 568.658 1090.07 534.977 1107.84 507.96C1120.5 488.573 1125.28 478.78 1135.12 456.861C1085.09 437.993 1064.51 382.863 1080.64 338.011Z" fill="#6C757D"/>
</svg>
