<svg viewBox="0 0 504 503" fill="none" xmlns="http://www.w3.org/2000/svg">
<path d="M341.626 0.438965C265.915 0.438965 202.518 44.1282 184.643 103.113C199.643 103.316 213.568 106.215 226.037 111.54H425.878C430.488 111.54 434.217 115.27 434.217 119.879C434.217 124.488 430.488 128.218 425.878 128.218H252.471C262.616 137.161 270.963 148.277 277.242 161.118H425.878C430.488 161.118 434.217 164.848 434.217 169.457C434.217 174.065 430.488 177.796 425.878 177.796H283.822C287.968 190.924 290.288 205.336 290.288 220.875C290.288 235.346 288.398 250.135 285.003 264.547C290.794 266.364 296.723 267.902 302.805 269.165L299.361 309.256C298.367 320.762 312.407 327.106 320.396 318.759L365.478 271.625C443.712 261.9 503.812 205.353 503.812 136.849C503.812 61.516 431.204 0.438965 341.626 0.438965Z" fill="#121116"/>
<path d="M355.599 441.892C342.367 402.933 311.707 373.738 274.141 361.166C269.71 359.683 264.865 361.744 262.862 365.962L209.994 477.39L220.401 419.75C221.509 413.601 219.961 407.266 216.142 402.323L188.537 366.629C187.225 364.928 185.198 363.933 183.055 363.933C180.914 363.933 178.885 364.928 177.575 366.629L149.97 402.323C146.151 407.266 144.604 413.601 145.71 419.75L156.109 477.341L103.25 365.953C101.247 361.727 96.4088 359.675 91.9704 361.166C54.4134 373.739 23.7448 402.933 10.5102 441.892L1.34905 468.863C-1.2813 476.617 -0.0185658 485.168 4.75341 491.828C9.52643 498.489 17.2214 502.439 25.4145 502.439H340.699C348.891 502.439 356.586 498.489 361.36 491.828C366.132 485.168 367.394 476.617 364.765 468.863L355.599 441.892Z" fill="#121116"/>
<path d="M183.054 347.052C228.463 347.052 265.272 281.351 265.272 220.877C265.272 160.403 228.463 128.057 183.054 128.057C137.664 128.057 100.854 160.403 100.854 220.877C100.854 281.351 137.664 347.052 183.054 347.052Z" fill="#121116"/>
</svg>
