<svg viewBox="0 0 471 502" fill="none" xmlns="http://www.w3.org/2000/svg">
<path d="M245.705 30.0955C275.497 53.2762 297.712 86.3232 304.814 123.828C310.212 171.208 301.672 214.566 271.881 252.83C246.227 282.229 209.791 303.495 170.418 306.494C123.657 309.122 84.5003 298.36 48.3702 267.152C18.6954 239.059 1.32037 201.215 0.0201443 160.523C-0.572275 116.614 11.8638 77.671 42.3998 45.5112C97.2875 -9.48988 183.232 -14.6512 245.705 30.0955ZM148.884 49.9049C148.884 55.7359 148.884 61.5669 148.884 67.5746C146.484 67.8991 146.484 67.8991 144.035 68.2303C123.915 71.3422 112.341 77.6799 100.292 94.0791C94.3084 104.337 94.7224 115.668 95.8748 127.21C99.7998 139.216 107.246 147.281 117.962 153.714C127.452 157.302 136.85 159.916 146.675 162.549C146.675 177.855 146.675 193.162 146.675 208.932C129.453 200.321 128.391 198.253 122.379 180.219C112.175 180.219 101.971 180.219 91.4573 180.219C94.3564 199.195 98.6733 214.225 114.373 226.326C125.072 233.234 136.15 236.208 148.884 235.437C148.884 241.996 148.884 248.556 148.884 255.315C152.528 255.315 156.173 255.315 159.927 255.315C159.927 248.755 159.927 242.195 159.927 235.437C162.752 235.3 165.576 235.163 168.486 235.022C182.895 233.343 195.961 228.344 206.155 217.758C217.126 203.506 219.037 191.4 217.354 173.593C214.007 161.101 206.883 152.881 196.38 145.587C185.532 139.867 173.935 137.031 162.136 133.836C161.407 120.716 160.678 107.596 159.927 94.0791C165.029 95.5368 170.132 96.9946 175.388 98.4965C176.846 104.327 178.304 110.158 179.806 116.166C190.01 116.166 200.214 116.166 210.728 116.166C210.054 101.567 208.581 90.9968 197.475 80.8268C185.59 73.0643 174.08 68.4976 159.927 67.5746C159.927 61.7436 159.927 55.9126 159.927 49.9049C156.283 49.9049 152.639 49.9049 148.884 49.9049Z" fill="#121116"/>
<path d="M241.65 3.52168C258.2 3.36806 274.75 3.25037 291.301 3.17836C298.986 3.1438 306.671 3.09693 314.356 3.0218C323.194 2.93596 332.031 2.90386 340.87 2.87459C343.626 2.84039 346.383 2.80619 349.223 2.77096C351.787 2.77046 354.351 2.76996 356.993 2.76944C359.249 2.75473 361.505 2.74001 363.83 2.72485C370.881 3.67302 373.514 5.21216 378.59 10.1478C379.677 15.4819 379.677 15.4819 379.653 21.9291C379.665 24.3728 379.677 26.8165 379.689 29.3342C379.658 32.0159 379.626 34.6977 379.593 37.4607C379.594 40.2837 379.596 43.1068 379.597 46.0154C379.6 53.7595 379.548 61.5023 379.486 69.246C379.431 77.3377 379.426 85.4293 379.415 93.5211C379.388 108.845 379.315 124.169 379.226 139.493C379.128 156.938 379.079 174.383 379.035 191.828C378.942 227.715 378.787 263.602 378.59 299.489C382.352 299.454 382.352 299.454 386.19 299.419C395.488 299.339 404.787 299.288 414.085 299.246C418.111 299.224 422.137 299.194 426.162 299.156C431.946 299.102 437.73 299.077 443.514 299.058C445.316 299.035 447.118 299.012 448.974 298.988C457.599 298.987 461.804 299.011 469.147 303.906C470.709 312.905 471.281 318.268 466.265 326.045C462.212 330.675 457.976 334.973 453.548 339.246C450.621 342.188 447.696 345.133 444.774 348.081C443.313 349.534 441.852 350.987 440.347 352.485C434.719 358.243 429.466 364.279 424.21 370.375C418.72 376.7 413.013 382.816 407.303 388.942C400.208 396.588 393.143 404.24 386.321 412.133C378.368 421.334 370.078 430.214 361.809 439.129C355.898 445.515 350.047 451.932 344.355 458.516C337.297 466.678 330.002 474.61 322.682 482.536C321.515 483.8 320.348 485.064 319.145 486.367C306.175 500.376 306.175 500.376 298.939 502C285.429 499.641 279.148 490.632 270.363 480.603C268.459 478.464 268.459 478.464 266.515 476.281C264.054 473.483 261.61 470.67 259.182 467.843C253.901 461.785 248.473 455.869 243.031 449.957C230.557 436.398 218.232 422.709 205.931 408.993C196.821 398.849 187.655 388.761 178.426 378.726C170.448 370.048 162.56 361.307 154.855 352.386C152.016 349.137 149.132 345.929 146.227 342.74C144.598 340.949 142.97 339.158 141.292 337.313C139.791 335.679 138.291 334.045 136.745 332.361C133.423 328.202 133.423 328.202 133.423 323.785C135.935 323.862 138.446 323.938 141.033 324.018C193.11 325.14 238.068 310.493 276.437 274.779C308.203 241.32 326.816 195.492 326.038 149.322C322.743 101.388 303.861 59.0751 268.931 25.626C261.599 19.3659 253.833 13.9226 245.783 8.62932C243.737 7.19435 243.737 7.19435 241.65 5.73039C241.65 5.00151 241.65 4.27264 241.65 3.52168Z" fill="#121116"/>
<path d="M159.928 166.966C169.588 168.369 176.2 170.07 184.224 175.801C187.691 182.734 187.211 188.034 186.433 195.68C179.556 204.782 173.096 208.337 162.137 211.141C159.928 208.932 159.928 208.932 159.678 204.829C159.689 203.082 159.701 201.336 159.713 199.536C159.72 197.65 159.727 195.764 159.734 193.82C159.753 191.837 159.771 189.854 159.79 187.811C159.8 185.819 159.81 183.828 159.821 181.776C159.847 176.839 159.883 171.903 159.928 166.966Z" fill="#121116"/>
<path d="M148.884 94.0789C148.884 106.47 148.884 118.861 148.884 131.627C133.423 127.21 133.423 127.21 129.143 123.344C125.998 116.684 125.734 112.407 126.797 105.122C133.805 96.4783 137.664 94.0789 148.884 94.0789Z" fill="#121116"/>
</svg>
