<svg viewBox="0 0 415 503" fill="none" xmlns="http://www.w3.org/2000/svg">
<path d="M266.166 397.593H31.951V61.671H266.102V86.801H297.574V54.811C297.595 24.677 272.853 0 242.74 0H55.355C25.199 0 0.521973 24.677 0.521973 54.811V447.831C0.521973 478.009 25.199 502.664 55.355 502.664H242.74C272.853 502.664 297.595 478.009 297.595 447.831V397.01H266.166V397.593ZM149.015 475.226C135.123 475.226 123.907 463.988 123.907 450.118C123.907 436.205 135.124 424.988 149.015 424.988C162.928 424.988 174.167 436.226 174.167 450.118C174.167 463.988 162.929 475.226 149.015 475.226Z" fill="#121116"/>
<path d="M129.041 95.386H58.7852V138.226H129.041V95.386Z" fill="#121116"/>
<path d="M129.041 205.073H58.7852V247.913H129.041V205.073Z" fill="#121116"/>
<path d="M129.041 319.873H58.7852V362.691H129.041V319.873Z" fill="#121116"/>
<path d="M378.399 223.905C375.918 210.919 370.892 198.904 363.774 188.399L388.969 163.183L363.235 137.535L338.083 162.708C327.621 155.547 315.542 150.585 302.599 148.083V112.383H266.188V148.083C253.224 150.585 241.252 155.568 230.683 162.708L205.575 137.535L179.841 163.204L204.993 188.42C197.896 198.925 192.892 210.94 190.411 223.904H154.754V260.294H190.41C192.891 273.215 197.917 285.23 205.013 295.778L179.84 320.951L205.574 346.577L230.747 321.425C241.274 328.586 253.288 333.569 266.252 336.093V371.728H302.663V336.072C315.605 333.591 327.599 328.565 338.147 321.447L363.299 346.599L389.033 320.951L363.838 295.778C370.956 285.273 375.961 273.237 378.463 260.273H414.141V223.905H378.399ZM284.437 281.693C262.543 281.693 244.768 264.005 244.768 242.089C244.768 220.195 262.542 202.399 284.437 202.399C306.353 202.399 324.041 220.173 324.041 242.089C324.041 264.026 306.309 281.693 284.437 281.693Z" fill="#121116"/>
</svg>
