<svg viewBox="0 0 502 502" fill="none" xmlns="http://www.w3.org/2000/svg">
<path d="M251 0C242.911 0 234.945 3.06396 228.817 9.1919L175.259 62.75H94.125C76.8442 62.75 62.75 76.8442 62.75 94.125V175.259L9.1919 228.817C-3.06397 241.073 -3.06397 260.927 9.1919 273.183L62.75 326.741V407.875C62.75 425.156 76.8442 439.25 94.125 439.25H175.259L228.817 492.808C241.073 505.064 260.927 505.064 273.183 492.808L326.741 439.25H407.875C425.156 439.25 439.25 425.156 439.25 407.875V326.741L492.808 273.183C505.064 260.927 505.064 241.073 492.808 228.817L439.25 175.259V94.125C439.25 76.8442 425.156 62.75 407.875 62.75H326.741L273.183 9.1919C267.055 3.06396 259.089 0 251 0ZM251 156.875C259.089 156.875 267.055 159.939 273.183 166.067L335.933 228.817C341.693 234.7 345.002 242.666 344.88 251H345.125V282.375H282.375V345.125H219.625V282.375H156.875V251H157.12C156.998 242.666 160.307 234.7 166.067 228.817L228.817 166.067C234.945 159.939 242.911 156.875 251 156.875Z" fill="#121116"/>
</svg>
